<?xml version="1.0" encoding="utf-8"?>
<!-- Generator: Adobe Illustrator 25.4.1, SVG Export Plug-In . SVG Version: 6.00 Build 0)  -->
<svg version="1.1" id="レイヤー_1" xmlns="http://www.w3.org/2000/svg" xmlns:xlink="http://www.w3.org/1999/xlink" x="0px"
	 y="0px" viewBox="0 0 49 23" style="enable-background:new 0 0 49 23;" xml:space="preserve">
<style type="text/css">
	.st0{fill:#040000;}
</style>
<g>
	<path class="st0" d="M0.3,17.2L4.1,0.1h2L10,17.2H7.5l-0.7-3.7H3.5l-0.7,3.7H0.3z M6.3,11.3L5.1,5.1h0l-1.2,6.2H6.3z"/>
	<path class="st0" d="M11.2,17.2V0.1h3.6c0.8,0,1.5,0.1,2,0.4c0.6,0.2,1,0.6,1.4,1c0.4,0.4,0.6,0.9,0.8,1.4c0.2,0.5,0.2,1.1,0.2,1.6
		v0.6c0,0.5,0,0.9-0.1,1.2c-0.1,0.3-0.2,0.6-0.3,0.8c-0.3,0.4-0.7,0.8-1.2,1.2c0.6,0.3,1,0.7,1.3,1.2c0.3,0.5,0.4,1.2,0.4,2.2v1
		c0,1.5-0.4,2.7-1.1,3.5c-0.7,0.8-1.9,1.2-3.5,1.2H11.2z M13.6,2.4v4.7h1.1c0.8,0,1.4-0.2,1.6-0.6c0.3-0.4,0.4-1,0.4-1.8
		c0-0.8-0.2-1.3-0.5-1.7c-0.3-0.4-0.9-0.6-1.7-0.6H13.6z M13.6,9.3v5.5h1.1c0.5,0,0.9-0.1,1.2-0.2c0.3-0.1,0.5-0.3,0.6-0.6
		c0.1-0.3,0.2-0.6,0.3-0.9c0-0.4,0-0.7,0-1.2c0-0.4,0-0.8-0.1-1.1c0-0.3-0.1-0.6-0.3-0.8c-0.2-0.2-0.4-0.4-0.6-0.5
		c-0.3-0.1-0.6-0.2-1.1-0.2H13.6z"/>
	<path class="st0" d="M21.2,4.2c0-0.7,0.1-1.3,0.4-1.8c0.2-0.5,0.6-1,1-1.3c0.4-0.3,0.8-0.6,1.3-0.8c0.5-0.2,1-0.3,1.5-0.3
		c0.5,0,1,0.1,1.5,0.3c0.5,0.2,0.9,0.4,1.3,0.8c0.4,0.4,0.7,0.8,0.9,1.3c0.2,0.5,0.4,1.1,0.4,1.8v9c0,0.7-0.1,1.3-0.4,1.8
		c-0.2,0.5-0.6,0.9-0.9,1.3c-0.4,0.4-0.8,0.6-1.3,0.8c-0.5,0.2-1,0.3-1.5,0.3c-0.5,0-1-0.1-1.5-0.3c-0.5-0.2-0.9-0.4-1.3-0.8
		c-0.4-0.3-0.7-0.8-1-1.3c-0.2-0.5-0.4-1.1-0.4-1.8V4.2z M23.7,13.2c0,0.6,0.2,1,0.5,1.3c0.3,0.3,0.7,0.4,1.2,0.4
		c0.4,0,0.8-0.1,1.2-0.4c0.3-0.3,0.5-0.7,0.5-1.3v-9c0-0.6-0.2-1-0.5-1.3c-0.3-0.3-0.7-0.4-1.2-0.4c-0.4,0-0.8,0.1-1.2,0.4
		c-0.3,0.3-0.5,0.7-0.5,1.3V13.2z"/>
	<path class="st0" d="M39.5,0.1v13.2c0,0.6-0.1,1.1-0.3,1.5c-0.2,0.5-0.5,0.9-0.9,1.3c-0.4,0.4-0.8,0.7-1.3,0.9
		c-0.5,0.2-1,0.3-1.5,0.3s-1.1-0.1-1.5-0.3c-0.5-0.2-0.9-0.5-1.3-0.9c-0.4-0.4-0.7-0.8-0.9-1.3c-0.2-0.5-0.3-1-0.3-1.5V0.1h2.4v13
		c0,0.6,0.1,1.1,0.4,1.3c0.3,0.3,0.6,0.4,1.1,0.4c0.4,0,0.8-0.1,1.1-0.4c0.3-0.3,0.4-0.7,0.4-1.3v-13H39.5z"/>
	<path class="st0" d="M43.4,17.2V2.4h-2.8V0.1h8.1v2.3h-2.8v14.8H43.4z"/>
</g>
</svg>
