<?xml version="1.0" encoding="utf-8"?>
<!-- Generator: Adobe Illustrator 25.4.1, SVG Export Plug-In . SVG Version: 6.00 Build 0)  -->
<svg version="1.1" id="レイヤー_1" xmlns="http://www.w3.org/2000/svg" xmlns:xlink="http://www.w3.org/1999/xlink" x="0px"
	 y="0px" viewBox="0 0 126 23" style="enable-background:new 0 0 126 23;" xml:space="preserve">
<style type="text/css">
	.st0{fill:#040000;}
</style>
<g>
	<path class="st0" d="M3.5,17.1V9.9L0.1,0h2.6l2,6.8h0l2-6.8h2.6L5.9,9.9v7.2H3.5z"/>
	<path class="st0" d="M8.8,9c0-0.5,0-1,0.1-1.4C9,7.2,9.1,6.8,9.3,6.5c0.3-0.5,0.7-1,1.2-1.3c0.5-0.3,1.2-0.5,2-0.5s1.4,0.2,2,0.5
		C15,5.6,15.4,6,15.7,6.5C15.8,6.8,16,7.2,16,7.6C16.1,8,16.1,8.5,16.1,9v4c0,0.5,0,1-0.1,1.4c-0.1,0.4-0.2,0.8-0.4,1.1
		c-0.3,0.5-0.7,1-1.2,1.3c-0.5,0.3-1.2,0.5-2,0.5s-1.4-0.2-2-0.5C10,16.4,9.6,16,9.3,15.5c-0.2-0.3-0.3-0.7-0.4-1.1
		C8.9,14,8.8,13.5,8.8,13V9z M11.3,13.4c0,0.5,0.1,0.8,0.3,1s0.5,0.3,0.9,0.3s0.7-0.1,0.9-0.3c0.2-0.2,0.3-0.6,0.3-1V8.6
		c0-0.5-0.1-0.8-0.3-1c-0.2-0.2-0.5-0.3-0.9-0.3s-0.7,0.1-0.9,0.3c-0.2,0.2-0.3,0.6-0.3,1V13.4z"/>
	<path class="st0" d="M22.4,8.3c0-0.4-0.1-0.7-0.4-0.9s-0.5-0.3-0.9-0.3c-0.4,0-0.7,0.1-0.9,0.4C20,7.7,19.9,8,19.9,8.3
		c0,0.2,0.1,0.4,0.2,0.7c0.1,0.2,0.4,0.4,0.9,0.6l1.4,0.6c0.9,0.4,1.5,0.8,1.9,1.4c0.3,0.6,0.5,1.3,0.5,2c0,0.5-0.1,1-0.3,1.4
		c-0.2,0.4-0.4,0.8-0.8,1.2c-0.3,0.3-0.7,0.6-1.2,0.8c-0.4,0.2-0.9,0.3-1.5,0.3c-1,0-1.8-0.3-2.5-0.9c-0.3-0.3-0.6-0.7-0.8-1.1
		c-0.2-0.5-0.3-1-0.3-1.6h2.3c0,0.3,0.2,0.6,0.3,0.9c0.2,0.3,0.5,0.4,1,0.4c0.4,0,0.7-0.1,0.9-0.3c0.3-0.2,0.4-0.6,0.4-1
		c0-0.3-0.1-0.6-0.3-0.9c-0.2-0.2-0.5-0.4-1-0.6l-1.2-0.4c-0.8-0.3-1.4-0.7-1.8-1.3c-0.4-0.6-0.7-1.3-0.7-2.1c0-0.5,0.1-1,0.3-1.4
		c0.2-0.4,0.5-0.8,0.8-1.1C19,5.4,19.4,5.2,19.8,5c0.4-0.2,0.9-0.3,1.4-0.3s1,0.1,1.4,0.3c0.4,0.2,0.8,0.4,1.1,0.7
		c0.3,0.3,0.5,0.7,0.7,1.1c0.2,0.4,0.3,0.9,0.3,1.4H22.4z"/>
	<path class="st0" d="M26.4,17.1V0h2.4v6.1h0c0.3-0.4,0.6-0.7,0.9-0.9c0.4-0.2,0.8-0.4,1.4-0.4c0.3,0,0.6,0.1,0.9,0.2
		c0.3,0.1,0.6,0.3,0.8,0.5c0.2,0.2,0.4,0.5,0.6,0.9c0.1,0.4,0.2,0.8,0.2,1.4v9.3h-2.4V8.7c0-0.4-0.1-0.8-0.3-1.1
		c-0.2-0.3-0.5-0.4-0.9-0.4c-0.5,0-0.8,0.1-1,0.4c-0.2,0.3-0.3,0.7-0.3,1.2v8.2H26.4z"/>
	<path class="st0" d="M35.7,2.4V0h2.4v2.4H35.7z M35.7,17.1V4.9h2.4v12.2H35.7z"/>
	<path class="st0" d="M40.2,4.9V1.2h2.4v3.7h1.5v1.9h-1.5v6.7c0,0.3,0,0.5,0.1,0.7c0.1,0.2,0.1,0.3,0.3,0.4c0.1,0.1,0.3,0.1,0.5,0.1
		c0.2,0,0.4,0,0.7,0v2.3h-1c-0.6,0-1-0.1-1.4-0.3c-0.4-0.2-0.7-0.4-0.9-0.7c-0.2-0.3-0.4-0.6-0.5-0.9c-0.1-0.3-0.2-0.7-0.2-1V6.8
		h-1.2V4.9H40.2z"/>
	<path class="st0" d="M49.7,17.1v-1.2h0c-0.3,0.4-0.6,0.8-1,1c-0.3,0.2-0.8,0.4-1.4,0.4c-0.3,0-0.6,0-0.9-0.1
		c-0.3-0.1-0.6-0.3-0.9-0.5c-0.3-0.2-0.5-0.5-0.7-1c-0.2-0.4-0.3-1-0.3-1.6c0-0.7,0.1-1.3,0.2-1.8c0.1-0.5,0.3-1,0.6-1.3
		c0.3-0.3,0.7-0.6,1.2-0.8c0.5-0.2,1.1-0.3,1.9-0.3c0.1,0,0.2,0,0.3,0s0.2,0,0.3,0c0.1,0,0.2,0,0.3,0s0.2,0,0.4,0V8.7
		c0-0.4-0.1-0.8-0.3-1c-0.2-0.3-0.5-0.4-1-0.4c-0.3,0-0.6,0.1-0.9,0.3S47.2,8,47.1,8.4h-2.4c0.1-1.1,0.4-2,1.1-2.6
		c0.3-0.3,0.7-0.6,1.2-0.8c0.4-0.2,1-0.3,1.5-0.3c0.5,0,1,0.1,1.4,0.2c0.4,0.2,0.8,0.4,1.2,0.7c0.3,0.3,0.6,0.7,0.8,1.2
		c0.2,0.5,0.3,1,0.3,1.7v8.5H49.7z M49.7,11.9c-0.3,0-0.5-0.1-0.7-0.1c-0.5,0-1,0.1-1.4,0.4c-0.4,0.2-0.6,0.7-0.6,1.4
		c0,0.5,0.1,0.8,0.3,1.1c0.2,0.3,0.5,0.4,0.9,0.4c0.4,0,0.7-0.1,1-0.4s0.3-0.7,0.3-1.2V11.9z"/>
	<path class="st0" d="M53.9,17.1V0h2.4v10.2h0l3-5.3h2.4l-2.9,4.9l3.5,7.2h-2.7l-2.2-5.3l-1.2,1.8v3.4H53.9z"/>
	<path class="st0" d="M67.9,17.1v-1.2h0c-0.3,0.4-0.6,0.8-1,1c-0.3,0.2-0.8,0.4-1.4,0.4c-0.3,0-0.6,0-0.9-0.1
		c-0.3-0.1-0.6-0.3-0.9-0.5c-0.3-0.2-0.5-0.5-0.7-1c-0.2-0.4-0.3-1-0.3-1.6c0-0.7,0.1-1.3,0.2-1.8c0.1-0.5,0.3-1,0.6-1.3
		c0.3-0.3,0.7-0.6,1.2-0.8s1.1-0.3,1.9-0.3c0.1,0,0.2,0,0.3,0s0.2,0,0.3,0c0.1,0,0.2,0,0.3,0s0.2,0,0.4,0V8.7c0-0.4-0.1-0.8-0.3-1
		c-0.2-0.3-0.5-0.4-1-0.4c-0.3,0-0.6,0.1-0.9,0.3S65.4,8,65.3,8.4h-2.4c0.1-1.1,0.4-2,1.1-2.6c0.3-0.3,0.7-0.6,1.2-0.8
		c0.4-0.2,1-0.3,1.5-0.3c0.5,0,1,0.1,1.4,0.2c0.4,0.2,0.8,0.4,1.2,0.7c0.3,0.3,0.6,0.7,0.8,1.2c0.2,0.5,0.3,1,0.3,1.7v8.5H67.9z
		 M67.9,11.9c-0.3,0-0.5-0.1-0.7-0.1c-0.5,0-1,0.1-1.4,0.4c-0.4,0.2-0.6,0.7-0.6,1.4c0,0.5,0.1,0.8,0.3,1.1c0.2,0.3,0.5,0.4,0.9,0.4
		c0.4,0,0.7-0.1,1-0.4s0.3-0.7,0.3-1.2V11.9z"/>
	<path class="st0" d="M75.7,17.1L79.5,0h2l3.8,17.1h-2.4l-0.7-3.7h-3.3l-0.7,3.7H75.7z M81.7,11.1l-1.2-6.2h0l-1.2,6.2H81.7z"/>
	<path class="st0" d="M86.4,17.1V4.9h2.4v1.2h0c0.3-0.4,0.6-0.7,0.9-0.9c0.4-0.2,0.8-0.4,1.4-0.4c0.5,0,1,0.1,1.3,0.4
		c0.4,0.3,0.6,0.5,0.9,0.8c0.3-0.3,0.6-0.6,1-0.9c0.4-0.2,0.9-0.4,1.5-0.4c0.3,0,0.6,0.1,0.9,0.2c0.3,0.1,0.6,0.3,0.9,0.5
		C98,5.7,98.2,6,98.3,6.4c0.2,0.4,0.2,0.8,0.2,1.4v9.3h-2.4V8.7c0-0.4-0.1-0.8-0.3-1.1c-0.2-0.3-0.5-0.4-0.9-0.4
		c-0.5,0-0.8,0.1-1,0.4s-0.3,0.7-0.3,1.2v8.2h-2.4V8.7c0-0.4-0.1-0.8-0.3-1.1c-0.2-0.3-0.5-0.4-0.9-0.4c-0.5,0-0.8,0.1-1,0.4
		c-0.2,0.3-0.3,0.7-0.3,1.2v8.2H86.4z"/>
	<path class="st0" d="M105.2,17.1v-1.2h0c-0.3,0.4-0.6,0.8-1,1c-0.3,0.2-0.8,0.4-1.4,0.4c-0.3,0-0.6,0-0.9-0.1
		c-0.3-0.1-0.6-0.3-0.9-0.5c-0.3-0.2-0.5-0.5-0.7-1c-0.2-0.4-0.3-1-0.3-1.6c0-0.7,0.1-1.3,0.2-1.8c0.1-0.5,0.3-1,0.6-1.3
		c0.3-0.3,0.7-0.6,1.2-0.8s1.1-0.3,1.9-0.3c0.1,0,0.2,0,0.3,0s0.2,0,0.3,0c0.1,0,0.2,0,0.3,0s0.2,0,0.4,0V8.7c0-0.4-0.1-0.8-0.3-1
		c-0.2-0.3-0.5-0.4-1-0.4c-0.3,0-0.6,0.1-0.9,0.3s-0.4,0.5-0.5,0.9h-2.4c0.1-1.1,0.4-2,1.1-2.6c0.3-0.3,0.7-0.6,1.2-0.8
		c0.4-0.2,1-0.3,1.5-0.3c0.5,0,1,0.1,1.4,0.2c0.4,0.2,0.8,0.4,1.2,0.7c0.3,0.3,0.6,0.7,0.8,1.2c0.2,0.5,0.3,1,0.3,1.7v8.5H105.2z
		 M105.2,11.9c-0.3,0-0.5-0.1-0.7-0.1c-0.5,0-1,0.1-1.4,0.4c-0.4,0.2-0.6,0.7-0.6,1.4c0,0.5,0.1,0.8,0.3,1.1
		c0.2,0.3,0.5,0.4,0.9,0.4c0.4,0,0.7-0.1,1-0.4s0.3-0.7,0.3-1.2V11.9z"/>
	<path class="st0" d="M109.5,17.1V4.9h2.4v1.2h0c0.3-0.4,0.6-0.7,0.9-0.9c0.4-0.2,0.8-0.4,1.4-0.4c0.3,0,0.6,0.1,0.9,0.2
		c0.3,0.1,0.6,0.3,0.8,0.5c0.2,0.2,0.4,0.5,0.6,0.9c0.1,0.4,0.2,0.8,0.2,1.4v9.3h-2.4V8.7c0-0.4-0.1-0.8-0.3-1.1
		c-0.2-0.3-0.5-0.4-0.9-0.4c-0.5,0-0.8,0.1-1,0.4c-0.2,0.3-0.3,0.7-0.3,1.2v8.2H109.5z"/>
	<path class="st0" d="M118.6,9c0-0.5,0-1,0.1-1.4c0.1-0.4,0.2-0.8,0.4-1.1c0.3-0.5,0.7-1,1.2-1.3c0.5-0.3,1.2-0.5,2-0.5
		s1.4,0.2,2,0.5c0.5,0.3,0.9,0.7,1.2,1.3c0.2,0.3,0.3,0.7,0.4,1.1c0.1,0.4,0.1,0.9,0.1,1.4v4c0,0.5,0,1-0.1,1.4
		c-0.1,0.4-0.2,0.8-0.4,1.1c-0.3,0.5-0.7,1-1.2,1.3c-0.5,0.3-1.2,0.5-2,0.5s-1.4-0.2-2-0.5c-0.5-0.3-0.9-0.7-1.2-1.3
		c-0.2-0.3-0.3-0.7-0.4-1.1c-0.1-0.4-0.1-0.9-0.1-1.4V9z M121,13.4c0,0.5,0.1,0.8,0.3,1s0.5,0.3,0.9,0.3s0.7-0.1,0.9-0.3
		c0.2-0.2,0.3-0.6,0.3-1V8.6c0-0.5-0.1-0.8-0.3-1c-0.2-0.2-0.5-0.3-0.9-0.3s-0.7,0.1-0.9,0.3c-0.2,0.2-0.3,0.6-0.3,1V13.4z"/>
</g>
</svg>
