<?xml version="1.0" encoding="utf-8"?>
<!-- Generator: Adobe Illustrator 25.4.1, SVG Export Plug-In . SVG Version: 6.00 Build 0)  -->
<svg version="1.1" id="レイヤー_1" xmlns="http://www.w3.org/2000/svg" xmlns:xlink="http://www.w3.org/1999/xlink" x="0px"
	 y="0px" viewBox="0 0 106 23" style="enable-background:new 0 0 106 23;" xml:space="preserve">
<style type="text/css">
	.st0{fill:#040000;}
</style>
<g>
	<path class="st0" d="M0.4,17.1L4.2,0h2L10,17.1H7.6l-0.7-3.7H3.5l-0.7,3.7H0.4z M6.4,11.1L5.2,4.9h0L4,11.1H6.4z"/>
	<path class="st0" d="M15.5,8.3c0-0.4-0.1-0.7-0.4-0.9s-0.5-0.3-0.9-0.3c-0.4,0-0.7,0.1-0.9,0.4c-0.2,0.2-0.3,0.5-0.3,0.9
		c0,0.2,0.1,0.4,0.2,0.7c0.1,0.2,0.4,0.4,0.9,0.6l1.4,0.6c0.9,0.4,1.5,0.8,1.9,1.4c0.3,0.6,0.5,1.3,0.5,2c0,0.5-0.1,1-0.3,1.4
		c-0.2,0.4-0.4,0.8-0.8,1.2c-0.3,0.3-0.7,0.6-1.2,0.8c-0.4,0.2-0.9,0.3-1.5,0.3c-1,0-1.8-0.3-2.5-0.9c-0.3-0.3-0.6-0.7-0.8-1.1
		c-0.2-0.5-0.3-1-0.3-1.6H13c0,0.3,0.2,0.6,0.3,0.9c0.2,0.3,0.5,0.4,1,0.4c0.4,0,0.7-0.1,0.9-0.3c0.3-0.2,0.4-0.6,0.4-1
		c0-0.3-0.1-0.6-0.3-0.9c-0.2-0.2-0.5-0.4-1-0.6l-1.2-0.4c-0.8-0.3-1.4-0.7-1.8-1.3c-0.4-0.6-0.7-1.3-0.7-2.1c0-0.5,0.1-1,0.3-1.4
		c0.2-0.4,0.5-0.8,0.8-1.1C12.2,5.4,12.5,5.2,13,5c0.4-0.2,0.9-0.3,1.4-0.3s1,0.1,1.4,0.3c0.4,0.2,0.8,0.4,1.1,0.7
		c0.3,0.3,0.5,0.7,0.7,1.1c0.2,0.4,0.3,0.9,0.3,1.4H15.5z"/>
	<path class="st0" d="M19.5,4.9V1.2H22v3.7h1.5v1.9H22v6.7c0,0.3,0,0.5,0.1,0.7c0.1,0.2,0.1,0.3,0.3,0.4c0.1,0.1,0.3,0.1,0.5,0.1
		c0.2,0,0.4,0,0.7,0v2.3h-1c-0.6,0-1-0.1-1.4-0.3c-0.4-0.2-0.7-0.4-0.9-0.7c-0.2-0.3-0.4-0.6-0.5-0.9c-0.1-0.3-0.2-0.7-0.2-1V6.8
		h-1.2V4.9H19.5z"/>
	<path class="st0" d="M29.1,17.1v-1.2h0c-0.3,0.4-0.6,0.8-1,1c-0.3,0.2-0.8,0.4-1.4,0.4c-0.3,0-0.6,0-0.9-0.1
		c-0.3-0.1-0.6-0.3-0.9-0.5c-0.3-0.2-0.5-0.5-0.7-1c-0.2-0.4-0.3-1-0.3-1.6c0-0.7,0.1-1.3,0.2-1.8c0.1-0.5,0.3-1,0.6-1.3
		c0.3-0.3,0.7-0.6,1.2-0.8s1.1-0.3,1.9-0.3c0.1,0,0.2,0,0.3,0s0.2,0,0.3,0c0.1,0,0.2,0,0.3,0s0.2,0,0.4,0V8.7c0-0.4-0.1-0.8-0.3-1
		c-0.2-0.3-0.5-0.4-1-0.4c-0.3,0-0.6,0.1-0.9,0.3S26.5,8,26.4,8.4h-2.4c0.1-1.1,0.4-2,1.1-2.6c0.3-0.3,0.7-0.6,1.2-0.8
		c0.4-0.2,1-0.3,1.5-0.3c0.5,0,1,0.1,1.4,0.2c0.4,0.2,0.8,0.4,1.2,0.7c0.3,0.3,0.6,0.7,0.8,1.2c0.2,0.5,0.3,1,0.3,1.7v8.5H29.1z
		 M29.1,11.9c-0.3,0-0.5-0.1-0.7-0.1c-0.5,0-1,0.1-1.4,0.4c-0.4,0.2-0.6,0.7-0.6,1.4c0,0.5,0.1,0.8,0.3,1.1c0.2,0.3,0.5,0.4,0.9,0.4
		c0.4,0,0.7-0.1,1-0.4s0.3-0.7,0.3-1.2V11.9z"/>
	<path class="st0" d="M33.3,17.1V4.9h2.4v1.3c0.5-0.4,1-0.8,1.5-1.1c0.5-0.3,1.1-0.4,1.8-0.4v2.6c-0.2-0.1-0.5-0.1-0.7-0.1
		c-0.3,0-0.5,0-0.8,0.1c-0.3,0.1-0.6,0.2-0.8,0.4C36.4,8,36.2,8.3,36,8.6s-0.2,0.8-0.2,1.2v7.2H33.3z"/>
	<path class="st0" d="M44.5,17.1V0h2.4l3.7,10.3h0V0H53v17.1h-2.3L47,6.8h0v10.3H44.5z"/>
	<path class="st0" d="M62.2,11.9h-4.8v1.7c0,0.4,0.1,0.7,0.3,0.9c0.2,0.2,0.5,0.3,0.9,0.3c0.5,0,0.8-0.1,0.9-0.4
		c0.2-0.3,0.2-0.5,0.3-0.8h2.4c0,1.1-0.3,1.9-1,2.6c-0.3,0.3-0.7,0.6-1.2,0.8c-0.4,0.2-1,0.3-1.5,0.3c-0.8,0-1.4-0.2-2-0.5
		c-0.5-0.3-0.9-0.7-1.2-1.3c-0.2-0.3-0.3-0.7-0.4-1.1c-0.1-0.4-0.1-0.9-0.1-1.4V9c0-0.5,0-1,0.1-1.4c0.1-0.4,0.2-0.8,0.4-1.1
		c0.3-0.5,0.7-1,1.2-1.3c0.5-0.3,1.2-0.5,2-0.5c0.6,0,1.1,0.1,1.5,0.3s0.8,0.5,1.2,0.8c0.6,0.7,1,1.6,1,2.7V11.9z M57.3,10h2.4V8.6
		c0-0.5-0.1-0.8-0.3-1c-0.2-0.2-0.5-0.3-0.9-0.3s-0.7,0.1-0.9,0.3c-0.2,0.2-0.3,0.6-0.3,1V10z"/>
	<path class="st0" d="M64,4.9V1.2h2.4v3.7h1.5v1.9h-1.5v6.7c0,0.3,0,0.5,0.1,0.7c0.1,0.2,0.1,0.3,0.3,0.4c0.1,0.1,0.3,0.1,0.5,0.1
		c0.2,0,0.4,0,0.7,0v2.3h-1c-0.6,0-1-0.1-1.4-0.3c-0.4-0.2-0.7-0.4-0.9-0.7c-0.2-0.3-0.4-0.6-0.5-0.9c-0.1-0.3-0.2-0.7-0.2-1V6.8
		h-1.2V4.9H64z"/>
	<path class="st0" d="M80.7,4.9l-2.9,12.2h-2.2l-1.3-7.2h0l-1.3,7.2h-2.2L67.9,4.9h2.6l1.5,7.6h0l1.4-7.6h1.9l1.3,7.6h0l1.5-7.6
		H80.7z"/>
	<path class="st0" d="M81.4,9c0-0.5,0-1,0.1-1.4c0.1-0.4,0.2-0.8,0.4-1.1c0.3-0.5,0.7-1,1.2-1.3c0.5-0.3,1.2-0.5,2-0.5
		s1.4,0.2,2,0.5c0.5,0.3,0.9,0.7,1.2,1.3c0.2,0.3,0.3,0.7,0.4,1.1C88.6,8,88.7,8.5,88.7,9v4c0,0.5,0,1-0.1,1.4
		c-0.1,0.4-0.2,0.8-0.4,1.1c-0.3,0.5-0.7,1-1.2,1.3c-0.5,0.3-1.2,0.5-2,0.5s-1.4-0.2-2-0.5c-0.5-0.3-0.9-0.7-1.2-1.3
		c-0.2-0.3-0.3-0.7-0.4-1.1c-0.1-0.4-0.1-0.9-0.1-1.4V9z M83.8,13.4c0,0.5,0.1,0.8,0.3,1s0.5,0.3,0.9,0.3s0.7-0.1,0.9-0.3
		c0.2-0.2,0.3-0.6,0.3-1V8.6c0-0.5-0.1-0.8-0.3-1c-0.2-0.2-0.5-0.3-0.9-0.3s-0.7,0.1-0.9,0.3c-0.2,0.2-0.3,0.6-0.3,1V13.4z"/>
	<path class="st0" d="M90.5,17.1V4.9h2.4v1.3c0.5-0.4,1-0.8,1.5-1.1c0.5-0.3,1.1-0.4,1.8-0.4v2.6c-0.2-0.1-0.5-0.1-0.7-0.1
		c-0.3,0-0.5,0-0.8,0.1c-0.3,0.1-0.6,0.2-0.8,0.4c-0.3,0.2-0.5,0.5-0.6,0.8s-0.2,0.8-0.2,1.2v7.2H90.5z"/>
	<path class="st0" d="M97.1,17.1V0h2.4v10.2h0l3-5.3h2.4l-2.9,4.9l3.5,7.2H103l-2.2-5.3l-1.2,1.8v3.4H97.1z"/>
</g>
</svg>
