<?xml version="1.0" encoding="utf-8"?>
<!-- Generator: Adobe Illustrator 25.4.1, SVG Export Plug-In . SVG Version: 6.00 Build 0)  -->
<svg version="1.1" id="レイヤー_1" xmlns="http://www.w3.org/2000/svg" xmlns:xlink="http://www.w3.org/1999/xlink" x="0px"
	 y="0px" viewBox="0 0 45 23" style="enable-background:new 0 0 45 23;" xml:space="preserve">
<g>
	<path d="M3.2,17.1V2.3H0.4V0h8.1v2.3H5.7v14.8H3.2z"/>
	<path d="M15,11.9h-4.8v1.7c0,0.4,0.1,0.7,0.3,0.9c0.2,0.2,0.5,0.3,0.9,0.3c0.5,0,0.8-0.1,0.9-0.4c0.2-0.3,0.2-0.5,0.3-0.8H15
		c0,1.1-0.3,1.9-1,2.6c-0.3,0.3-0.7,0.6-1.2,0.8c-0.4,0.2-1,0.3-1.5,0.3c-0.8,0-1.4-0.2-2-0.5c-0.5-0.3-0.9-0.7-1.2-1.3
		c-0.2-0.3-0.3-0.7-0.4-1.1C7.8,14,7.8,13.5,7.8,13V9c0-0.5,0-1,0.1-1.4C7.9,7.2,8,6.8,8.2,6.5c0.3-0.5,0.7-1,1.2-1.3
		c0.5-0.3,1.2-0.5,2-0.5c0.6,0,1.1,0.1,1.5,0.3s0.8,0.5,1.2,0.8c0.6,0.7,1,1.6,1,2.7V11.9z M10.2,10h2.4V8.6c0-0.5-0.1-0.8-0.3-1
		c-0.2-0.2-0.5-0.3-0.9-0.3s-0.7,0.1-0.9,0.3c-0.2,0.2-0.3,0.6-0.3,1V10z"/>
	<path d="M16.8,17.1V4.9h2.4v1.3c0.5-0.4,1-0.8,1.5-1.1c0.5-0.3,1.1-0.4,1.8-0.4v2.6c-0.2-0.1-0.5-0.1-0.7-0.1c-0.3,0-0.5,0-0.8,0.1
		c-0.3,0.1-0.6,0.2-0.8,0.4c-0.3,0.2-0.5,0.5-0.6,0.8s-0.2,0.8-0.2,1.2v7.2H16.8z"/>
	<path d="M23.5,17.1V4.9H26v1.2h0c0.3-0.4,0.6-0.7,0.9-0.9c0.4-0.2,0.8-0.4,1.4-0.4c0.5,0,1,0.1,1.3,0.4C30,5.4,30.3,5.7,30.5,6
		c0.3-0.3,0.6-0.6,1-0.9c0.4-0.2,0.9-0.4,1.5-0.4c0.3,0,0.6,0.1,0.9,0.2c0.3,0.1,0.6,0.3,0.9,0.5c0.3,0.2,0.5,0.5,0.6,0.9
		c0.2,0.4,0.2,0.8,0.2,1.4v9.3h-2.4V8.7c0-0.4-0.1-0.8-0.3-1.1c-0.2-0.3-0.5-0.4-0.9-0.4c-0.5,0-0.8,0.1-1,0.4s-0.3,0.7-0.3,1.2v8.2
		h-2.4V8.7c0-0.4-0.1-0.8-0.3-1.1c-0.2-0.3-0.5-0.4-0.9-0.4c-0.5,0-0.8,0.1-1,0.4C26.1,7.9,26,8.4,26,8.9v8.2H23.5z"/>
	<path d="M42.2,8.3c0-0.4-0.1-0.7-0.4-0.9s-0.5-0.3-0.9-0.3c-0.4,0-0.7,0.1-0.9,0.4c-0.2,0.2-0.3,0.5-0.3,0.9c0,0.2,0.1,0.4,0.2,0.7
		c0.1,0.2,0.4,0.4,0.9,0.6l1.4,0.6c0.9,0.4,1.5,0.8,1.9,1.4c0.3,0.6,0.5,1.3,0.5,2c0,0.5-0.1,1-0.3,1.4c-0.2,0.4-0.4,0.8-0.8,1.2
		c-0.3,0.3-0.7,0.6-1.2,0.8c-0.4,0.2-0.9,0.3-1.5,0.3c-1,0-1.8-0.3-2.5-0.9c-0.3-0.3-0.6-0.7-0.8-1.1c-0.2-0.5-0.3-1-0.3-1.6h2.3
		c0,0.3,0.2,0.6,0.3,0.9c0.2,0.3,0.5,0.4,1,0.4c0.4,0,0.7-0.1,0.9-0.3c0.3-0.2,0.4-0.6,0.4-1c0-0.3-0.1-0.6-0.3-0.9
		c-0.2-0.2-0.5-0.4-1-0.6l-1.2-0.4c-0.8-0.3-1.4-0.7-1.8-1.3c-0.4-0.6-0.7-1.3-0.7-2.1c0-0.5,0.1-1,0.3-1.4c0.2-0.4,0.5-0.8,0.8-1.1
		c0.3-0.3,0.7-0.6,1.1-0.7c0.4-0.2,0.9-0.3,1.4-0.3s1,0.1,1.4,0.3c0.4,0.2,0.8,0.4,1.1,0.7c0.3,0.3,0.5,0.7,0.7,1.1
		c0.2,0.4,0.3,0.9,0.3,1.4H42.2z"/>
</g>
</svg>
