<?xml version="1.0" encoding="utf-8"?>
<!-- Generator: Adobe Illustrator 25.4.1, SVG Export Plug-In . SVG Version: 6.00 Build 0)  -->
<svg version="1.1" id="レイヤー_1" xmlns="http://www.w3.org/2000/svg" xmlns:xlink="http://www.w3.org/1999/xlink" x="0px"
	 y="0px" viewBox="0 0 1496 300" style="enable-background:new 0 0 1496 300;" xml:space="preserve">
<style type="text/css">
	.st0{display:none;}
	.st1{display:inline;fill:#FFFFFF;}
	.st2{fill:#FFFFFF;}
</style>
<rect x="0.9" y="-2.4" width="1504.6" height="333.9"/>
<g id="レイヤー_2_00000067237080133922314710000005609631630340806815_" class="st0">
	<path class="st1" d="M1746,550H-250v-800h1996V550z M1496,0H0v300h1496V0z"/>
</g>
<g>
	<path class="st2" d="M482.9,212.1V99.9h15.4l20.6,59.4h0.3l20.5-59.4h15.6v112.1h-16.1v-68.2H539l-15.9,48.2h-8l-15.7-48.2H499
		v68.2H482.9z"/>
	<path class="st2" d="M578.8,212.1V99.9h16.1v112.1H578.8z"/>
	<path class="st2" d="M617.7,212.1V99.9h15.4l24.2,67.5h0.3V99.9h16.1v112.1h-15.1l-24.6-67.4h-0.3v67.4H617.7z"/>
	<path class="st2" d="M706.7,212.1v-97h-18.6V99.9h53.2v15.1h-18.6v97H706.7z"/>
	<path class="st2" d="M845.4,132.2h-16.1v-3.6c0-3.7-0.9-6.8-2.6-9.5c-1.7-2.7-4.6-4-8.7-4c-2.2,0-4,0.4-5.4,1.3
		c-1.4,0.8-2.5,1.9-3.3,3.1c-0.8,1.4-1.4,2.9-1.7,4.6c-0.3,1.7-0.5,3.5-0.5,5.4c0,2.2,0.1,4,0.2,5.5c0.2,1.5,0.6,2.8,1.2,3.9
		c0.6,1.2,1.5,2.2,2.8,3c1.2,0.8,2.9,1.7,5,2.5l12.3,4.9c3.6,1.4,6.5,3,8.7,4.8c2.2,1.8,3.9,4,5.2,6.4c1.2,2.5,1.9,5.4,2.4,8.6
		c0.4,3.2,0.6,6.8,0.6,10.9c0,4.7-0.5,9.1-1.4,13.1c-0.9,4-2.5,7.5-4.6,10.3c-2.2,2.9-5.1,5.3-8.7,6.9c-3.6,1.7-7.9,2.5-13.1,2.5
		c-3.9,0-7.5-0.7-10.9-2c-3.4-1.4-6.2-3.3-8.7-5.7c-2.4-2.4-4.3-5.2-5.7-8.4c-1.4-3.2-2.1-6.7-2.1-10.5v-6h16.1v5
		c0,2.9,0.9,5.6,2.6,8c1.7,2.4,4.6,3.5,8.7,3.5c2.7,0,4.9-0.4,6.4-1.2c1.5-0.8,2.7-1.9,3.5-3.4c0.8-1.5,1.3-3.2,1.5-5.3
		c0.2-2,0.2-4.3,0.2-6.8c0-2.9-0.1-5.4-0.3-7.2c-0.2-1.9-0.6-3.4-1.3-4.6c-0.7-1.2-1.7-2.1-2.9-2.8c-1.2-0.7-2.8-1.5-4.8-2.4
		l-11.5-4.7c-6.9-2.8-11.6-6.6-13.9-11.3c-2.4-4.7-3.5-10.5-3.5-17.6c0-4.2,0.6-8.2,1.7-12c1.2-3.8,2.9-7,5.2-9.8
		c2.2-2.7,5-4.9,8.4-6.5c3.4-1.6,7.5-2.4,12.2-2.4c4,0,7.6,0.7,10.9,2.2c3.3,1.5,6.2,3.4,8.6,5.8c4.8,5,7.2,10.8,7.2,17.3V132.2z"/>
	<path class="st2" d="M865.7,212.1V99.9h16.1v112.1H865.7z"/>
	<path class="st2" d="M915.8,212.1v-97h-18.6V99.9h53.2v15.1h-18.6v97H915.8z"/>
	<path class="st2" d="M965.4,212.1V99.9h47.9v15.1h-31.8V148h27.7v15.1h-27.7V196h31.8v16.1H965.4z"/>
</g>
</svg>
