<?xml version="1.0" encoding="utf-8"?>
<!-- Generator: Adobe Illustrator 25.4.1, SVG Export Plug-In . SVG Version: 6.00 Build 0)  -->
<svg version="1.1" xmlns="http://www.w3.org/2000/svg" xmlns:xlink="http://www.w3.org/1999/xlink" x="0px" y="0px"
	 viewBox="0 0 1496 300" style="enable-background:new 0 0 1496 300;" xml:space="preserve">
<style type="text/css">
	.st0{fill:#FFFFFF;}
	.st1{display:none;}
	.st2{display:inline;fill:#FFFFFF;}
</style>
<g id="レイヤー_1">
	<rect x="-157" y="-83" width="1677" height="547"/>
	<g>
		<path class="st0" d="M616.8,212.9V99h15.7l21,60.3h0.3L674.6,99h15.8v113.9h-16.3v-69.3h-0.3l-16.2,49h-8.2l-16-49h-0.3v69.3
			H616.8z"/>
		<path class="st0" d="M714.2,212.9V99h16.3v113.9H714.2z"/>
		<path class="st0" d="M753.8,212.9V99h15.7l24.6,68.6h0.3V99h16.3v113.9h-15.4l-25-68.5h-0.3v68.5H753.8z"/>
		<path class="st0" d="M844.2,212.9v-98.6h-18.9V99h54.1v15.4h-18.9v98.6H844.2z"/>
	</g>
</g>
<g id="レイヤー_2" class="st1">
	<path class="st2" d="M1746,550H-250v-800h1996V550z M1496,0H0v300h1496V0z"/>
</g>
</svg>
