<?xml version="1.0" encoding="utf-8"?>
<!-- Generator: Adobe Illustrator 25.4.1, SVG Export Plug-In . SVG Version: 6.00 Build 0)  -->
<svg version="1.1" id="レイヤー_1" xmlns="http://www.w3.org/2000/svg" xmlns:xlink="http://www.w3.org/1999/xlink" x="0px"
	 y="0px" viewBox="0 0 49 40" style="enable-background:new 0 0 49 40;" xml:space="preserve">
<style type="text/css">
	.st0{fill:#040000;}
</style>
<g>
	<path class="st0" d="M41.4,4.5C38.3,3.1,35,2,31.5,1.4c-0.1,0-0.1,0-0.2,0.1c-0.4,0.8-0.9,1.8-1.2,2.5c-3.7-0.6-7.5-0.6-11.1,0
		c-0.3-0.8-0.8-1.8-1.3-2.5c0-0.1-0.1-0.1-0.2-0.1C14,2,10.7,3.1,7.6,4.5c0,0,0,0-0.1,0.1C1.2,14-0.5,23.2,0.3,32.3
		c0,0,0,0.1,0.1,0.1c4.2,3.1,8.2,4.9,12.2,6.2c0.1,0,0.1,0,0.2-0.1c0.9-1.3,1.8-2.6,2.5-4.1c0-0.1,0-0.2-0.1-0.2
		c-1.3-0.5-2.6-1.1-3.8-1.8c-0.1-0.1-0.1-0.2,0-0.3c0.3-0.2,0.5-0.4,0.8-0.6c0,0,0.1,0,0.2,0c8,3.6,16.6,3.6,24.5,0
		c0.1,0,0.1,0,0.2,0c0.2,0.2,0.5,0.4,0.8,0.6c0.1,0.1,0.1,0.2,0,0.3c-1.2,0.7-2.5,1.3-3.8,1.8c-0.1,0-0.1,0.1-0.1,0.2
		c0.7,1.4,1.6,2.8,2.5,4c0,0.1,0.1,0.1,0.2,0.1c4-1.2,8-3.1,12.2-6.2c0,0,0.1-0.1,0.1-0.1C49.7,21.8,47,12.7,41.4,4.5
		C41.4,4.5,41.4,4.5,41.4,4.5z M16.4,26.8c-2.4,0-4.4-2.2-4.4-4.9s1.9-4.9,4.4-4.9c2.5,0,4.4,2.2,4.4,4.9
		C20.8,24.6,18.9,26.8,16.4,26.8z M32.6,26.8c-2.4,0-4.4-2.2-4.4-4.9s1.9-4.9,4.4-4.9c2.5,0,4.4,2.2,4.4,4.9
		C37,24.6,35.1,26.8,32.6,26.8z"/>
</g>
</svg>
