<?xml version="1.0" encoding="utf-8"?>
<!-- Generator: Adobe Illustrator 25.4.1, SVG Export Plug-In . SVG Version: 6.00 Build 0)  -->
<svg version="1.1" id="レイヤー_1" xmlns="http://www.w3.org/2000/svg" xmlns:xlink="http://www.w3.org/1999/xlink" x="0px"
	 y="0px" viewBox="0 0 547 64" style="enable-background:new 0 0 547 64;" xml:space="preserve">
<style type="text/css">
	.st0{fill:#FFFFFF;}
</style>
<g>
	<path class="st0" d="M49.5,0.7l-9.3,62.7h-8.4l-6.9-40.7h-0.2l-6.8,40.7H9.5L0.1,0.7h9.5l4.5,39.8h0.2l7-39.8h6.9l7.3,40.7h0.2
		L40,0.7H49.5z"/>
	<path class="st0" d="M54.6,63.3V0.7h9V23h0.2c0.9-1.4,2.1-2.6,3.4-3.5c1.3-0.9,3-1.4,5.1-1.4c1.1,0,2.2,0.2,3.3,0.6
		c1.1,0.4,2.1,1,3,1.9c0.9,0.9,1.6,2,2.1,3.4c0.5,1.4,0.8,3.1,0.8,5.1v34.2h-9V32.4c0-1.6-0.4-2.9-1.1-3.9c-0.8-0.9-1.8-1.4-3.3-1.4
		c-1.7,0-2.9,0.5-3.5,1.6c-0.6,1.1-1,2.6-1,4.6v30H54.6z"/>
	<path class="st0" d="M105.8,63.3v-4.6h-0.2c-1.2,1.6-2.4,2.9-3.6,3.8c-1.2,0.9-2.9,1.3-5.1,1.3c-1.1,0-2.1-0.2-3.2-0.5
		c-1.1-0.3-2.1-0.9-3.1-1.8c-1-0.8-1.8-2-2.4-3.6c-0.6-1.6-0.9-3.6-0.9-6c0-2.5,0.2-4.7,0.6-6.6c0.4-1.9,1.2-3.5,2.3-4.8
		c1.1-1.2,2.5-2.2,4.3-2.8c1.8-0.6,4.1-0.9,7-0.9c0.3,0,0.6,0,1,0c0.4,0,0.7,0,1,0.1c0.3,0.1,0.6,0.1,1.1,0.1c0.4,0,0.8,0,1.3,0.1
		v-4.7c0-1.5-0.3-2.8-1-3.8c-0.6-1-1.8-1.5-3.5-1.5c-1.2,0-2.2,0.4-3.2,1.1c-1,0.8-1.6,1.9-1.9,3.3h-8.7c0.2-4,1.6-7.2,4-9.7
		c1.2-1.2,2.6-2.1,4.2-2.8c1.6-0.7,3.5-1,5.5-1c1.9,0,3.6,0.3,5.3,0.9c1.6,0.6,3.1,1.5,4.3,2.6c1.2,1.2,2.1,2.6,2.8,4.4
		c0.7,1.8,1.1,3.8,1.1,6.2v31.1H105.8z M105.8,44.1c-1-0.2-1.8-0.3-2.5-0.3c-1.9,0-3.6,0.5-5,1.4c-1.4,0.9-2.1,2.6-2.1,5
		c0,1.7,0.4,3.1,1.2,4.1c0.8,1.1,2,1.6,3.4,1.6c1.5,0,2.7-0.5,3.6-1.5c0.8-1,1.3-2.4,1.3-4.2V44.1z"/>
	<path class="st0" d="M121.4,18.7V5.2h9v13.6h5.5v7h-5.5v24.7c0,1.1,0.1,1.9,0.3,2.5c0.2,0.6,0.5,1,1,1.3c0.5,0.3,1,0.5,1.7,0.5
		c0.7,0.1,1.5,0.1,2.5,0.1v8.4h-3.7c-2.1,0-3.8-0.3-5.1-1c-1.4-0.6-2.5-1.5-3.3-2.5c-0.8-1-1.4-2.1-1.8-3.4
		c-0.4-1.3-0.6-2.5-0.6-3.7V25.8h-4.5v-7H121.4z"/>
	<path class="st0" d="M139.3,16.2V0.7h9v9L139.3,16.2z"/>
	<path class="st0" d="M167.2,31.2c-0.1-1.5-0.5-2.7-1.5-3.4c-0.9-0.8-2-1.1-3.1-1.1c-1.4,0-2.5,0.5-3.3,1.4c-0.8,0.9-1.1,2-1.1,3.1
		c0,0.8,0.2,1.6,0.6,2.4c0.4,0.8,1.5,1.5,3.2,2.2l5.3,2.1c3.3,1.3,5.6,3.1,6.9,5.3c1.3,2.2,1.9,4.7,1.9,7.3c0,1.9-0.3,3.6-1,5.2
		c-0.7,1.6-1.6,3-2.8,4.3c-1.2,1.2-2.6,2.2-4.2,2.9c-1.6,0.7-3.4,1.1-5.4,1.1c-3.6,0-6.7-1.1-9.2-3.4c-1.2-1.1-2.2-2.5-3-4.2
		c-0.8-1.7-1.2-3.6-1.2-5.9h8.4c0.2,1.2,0.6,2.4,1.3,3.4c0.7,1.1,1.9,1.6,3.6,1.6c1.3,0,2.4-0.4,3.5-1.3c1-0.8,1.5-2,1.5-3.6
		c0-1.2-0.3-2.3-1-3.2c-0.6-0.9-1.8-1.6-3.5-2.3l-4.3-1.6c-2.8-1.1-5-2.6-6.6-4.7c-1.6-2.1-2.4-4.6-2.4-7.6c0-1.9,0.4-3.6,1.1-5.2
		c0.7-1.6,1.7-3,2.9-4.2c1.2-1.2,2.6-2.1,4.1-2.7s3.3-0.9,5.1-0.9s3.5,0.3,5.1,1c1.6,0.6,2.9,1.6,4,2.7c1.1,1.2,2,2.6,2.6,4.2
		c0.6,1.6,1,3.3,1,5.1H167.2z"/>
	<path class="st0" d="M227.3,45.5v3.9c0,1.9-0.4,3.8-1.1,5.5c-0.7,1.7-1.7,3.3-3,4.6c-1.3,1.4-2.8,2.4-4.5,3.2s-3.6,1.2-5.6,1.2
		c-1.7,0-3.4-0.2-5.2-0.7c-1.8-0.5-3.3-1.3-4.8-2.5c-1.4-1.2-2.6-2.7-3.5-4.5c-0.9-1.8-1.4-4.2-1.4-7.1V14.6c0-2.1,0.4-4,1.1-5.7
		c0.7-1.8,1.7-3.3,3-4.6c1.3-1.3,2.8-2.3,4.6-3c1.8-0.7,3.8-1.1,5.9-1.1c4.2,0,7.7,1.4,10.3,4.1c1.3,1.4,2.3,2.9,3,4.8
		c0.7,1.8,1.1,3.9,1.1,6v3.5h-9v-3c0-1.8-0.5-3.3-1.5-4.6c-1-1.3-2.3-1.9-4-1.9c-2.2,0-3.7,0.7-4.4,2.1c-0.7,1.4-1.1,3.1-1.1,5.2v32
		c0,1.8,0.4,3.3,1.2,4.6c0.8,1.2,2.2,1.8,4.3,1.8c0.6,0,1.2-0.1,1.9-0.3c0.7-0.2,1.3-0.5,1.9-1c0.5-0.5,1-1.1,1.3-1.9
		c0.4-0.8,0.5-1.8,0.5-3.1v-3.1H227.3z"/>
	<path class="st0" d="M230.5,63.3l14-62.7h7.5l14,62.7h-9l-2.6-13.5h-12.2l-2.6,13.5H230.5z M252.7,41.4l-4.4-22.7h-0.2l-4.4,22.7
		H252.7z"/>
	<path class="st0" d="M270,63.3V0.7h8.6l13.6,37.8h0.2V0.7h9v62.7h-8.4l-13.7-37.7H279v37.7H270z"/>
	<path class="st0" d="M309.4,63.3V0.7h13.3c5.2,0,9.1,1.4,11.7,4.2c2.7,2.8,4,6.8,4,12v29.3c0,5.9-1.4,10.2-4.3,13
		c-2.8,2.8-6.9,4.2-12.3,4.2H309.4z M318.4,9.1v45.8h4.1c2.5,0,4.3-0.6,5.4-1.9c1.1-1.3,1.6-3.2,1.6-5.9V16.9c0-2.5-0.5-4.4-1.5-5.7
		c-1-1.3-2.8-2-5.5-2H318.4z"/>
	<path class="st0" d="M353.7,63.3V36.8L341.4,0.7h9.5l7.2,24.9h0.2l7.2-24.9h9.5l-12.3,36.2v26.5H353.7z"/>
	<path class="st0" d="M395.3,15.5c0-2.5,0.4-4.8,1.3-6.7c0.9-1.9,2.1-3.5,3.5-4.8c1.4-1.2,3-2.2,4.8-2.8c1.8-0.6,3.6-1,5.4-1
		c1.8,0,3.6,0.3,5.4,1c1.8,0.6,3.4,1.6,4.9,2.8c1.4,1.3,2.6,2.9,3.4,4.8c0.9,1.9,1.3,4.2,1.3,6.7v3.2h-9v-3.2c0-2.2-0.6-3.8-1.8-4.8
		c-1.2-1-2.6-1.5-4.3-1.5c-1.6,0-3.1,0.5-4.3,1.5c-1.2,1-1.8,2.6-1.8,4.8v33.1c0,2.2,0.6,3.8,1.8,4.8c1.2,1,2.6,1.5,4.3,1.5
		c1.6,0,3.1-0.5,4.3-1.5c1.2-1,1.8-2.6,1.8-4.8V36.8h-7.1v-7.9h16.1v19.7c0,2.6-0.4,4.9-1.3,6.8c-0.9,1.9-2,3.4-3.4,4.7
		c-1.5,1.3-3.1,2.3-4.9,2.9c-1.8,0.6-3.6,1-5.4,1c-1.8,0-3.6-0.3-5.4-1c-1.8-0.6-3.4-1.6-4.8-2.9c-1.5-1.2-2.6-2.8-3.5-4.7
		c-0.9-1.9-1.3-4.1-1.3-6.8V15.5z"/>
	<path class="st0" d="M433.6,63.3V0.7h9v62.7H433.6z"/>
	<path class="st0" d="M451.3,63.3V0.7h14.4c10.6,0,15.8,6.1,15.8,18.4c0,3.7-0.6,6.8-1.7,9.4c-1.1,2.6-3.2,4.7-6,6.2l9.7,28.6H474
		l-8.4-26.8h-5.4v26.8H451.3z M460.3,9.1v19.5h5.1c1.6,0,2.8-0.2,3.8-0.7s1.7-1.1,2.2-1.9c0.5-0.8,0.8-1.8,1-3
		c0.2-1.2,0.3-2.6,0.3-4.2s-0.1-3-0.3-4.2c-0.2-1.2-0.5-2.2-1.1-3.1c-1.1-1.6-3.2-2.5-6.3-2.5H460.3z"/>
	<path class="st0" d="M488.8,63.3V0.7h9v53.7h17.8v9H488.8z"/>
	<path class="st0" d="M519.9,18.7v-5.2c0-1.8,0.4-3.5,1.1-5.2c0.7-1.6,1.7-3.1,2.9-4.3c1.2-1.2,2.7-2.1,4.3-2.8
		c1.6-0.7,3.4-1.1,5.3-1.1c2.2,0,4.1,0.4,5.9,1.3c1.8,0.9,3.3,2.1,4.4,3.7c0.6,0.8,1.1,1.6,1.5,2.2c0.4,0.7,0.7,1.4,0.9,2.2
		c0.4,1.5,0.6,3.5,0.6,6.2c0,1.5,0,2.8,0,3.8c0,1-0.1,1.9-0.2,2.7c-0.1,0.8-0.3,1.4-0.4,2c-0.2,0.6-0.4,1.1-0.7,1.5l-6.1,10.4
		c-0.4,0.7-0.8,1.4-1.1,2.2c-0.3,0.7-0.4,1.5-0.4,2.3v7h-9v-8.2c0-1.3,0.2-2.5,0.6-3.7c0.4-1.2,0.9-2.3,1.6-3.4l5.6-9.2
		c0.5-0.8,0.8-1.6,0.9-2.5c0.1-0.9,0.2-1.8,0.2-2.6v-4.7c0-1.2-0.4-2.3-1.3-3.2c-0.9-0.9-1.9-1.3-3.1-1.3c-1.1,0-2.1,0.4-3.1,1.1
		c-1,0.8-1.5,1.9-1.5,3.3v5.1H519.9z M528.9,63.3v-9h9v9H528.9z"/>
</g>
</svg>
