<?xml version="1.0" encoding="utf-8"?>
<!-- Generator: Adobe Illustrator 25.4.1, SVG Export Plug-In . SVG Version: 6.00 Build 0)  -->
<svg version="1.1" id="レイヤー_1" xmlns="http://www.w3.org/2000/svg" xmlns:xlink="http://www.w3.org/1999/xlink" x="0px"
	 y="0px" viewBox="0 0 27 23" style="enable-background:new 0 0 27 23;" xml:space="preserve">
<style type="text/css">
	.st0{fill:#040000;}
</style>
<g>
	<path class="st0" d="M0.2,17.2V0.1h7.3v2.3H2.6v5.2h4.2v2.3H2.6v7.3H0.2z"/>
	<path class="st0" d="M6.7,17.2l3.8-17.1h2l3.8,17.1H14l-0.7-3.7H9.9l-0.7,3.7H6.7z M12.8,11.3l-1.2-6.2h0l-1.2,6.2H12.8z"/>
	<path class="st0" d="M17.5,4.2c0-0.7,0.1-1.3,0.4-1.8c0.2-0.5,0.6-1,1-1.3c0.4-0.3,0.8-0.6,1.3-0.8c0.5-0.2,1-0.3,1.5-0.3
		s1,0.1,1.5,0.3C23.5,0.4,24,0.7,24.4,1c0.4,0.4,0.7,0.8,0.9,1.3c0.2,0.5,0.4,1.1,0.4,1.8v9c0,0.7-0.1,1.3-0.4,1.8l1.5,1.2l-1.2,1.5
		l-1.4-1.2c-0.7,0.6-1.6,0.9-2.6,0.9c-0.5,0-1-0.1-1.5-0.3c-0.5-0.2-0.9-0.4-1.3-0.8c-0.4-0.3-0.7-0.8-1-1.3
		c-0.2-0.5-0.4-1.1-0.4-1.8V4.2z M19.9,13.2c0,0.6,0.2,1,0.5,1.3c0.3,0.3,0.7,0.4,1.2,0.4c0.2,0,0.4,0,0.5-0.1L21,13.9l1.2-1.5
		l1,0.8v0v-9c0-0.6-0.2-1-0.5-1.3c-0.3-0.3-0.7-0.4-1.2-0.4s-0.8,0.1-1.2,0.4c-0.3,0.3-0.5,0.7-0.5,1.3V13.2z"/>
</g>
</svg>
