<?xml version="1.0" encoding="utf-8"?>
<!-- Generator: Adobe Illustrator 25.4.1, SVG Export Plug-In . SVG Version: 6.00 Build 0)  -->
<svg version="1.1" id="レイヤー_1" xmlns="http://www.w3.org/2000/svg" xmlns:xlink="http://www.w3.org/1999/xlink" x="0px"
	 y="0px" viewBox="0 0 286 73" style="enable-background:new 0 0 286 73;" xml:space="preserve">
<style type="text/css">
	.st0{fill:#231815;}
	.st1{fill:#040000;}
</style>
<g>
	<g>
		<g>
			<path class="st0" d="M88,24.5L74.3,1.2h-7c0,0-3.9,0-3.9,0v0.9h1.2C66.4,2.1,67,2.8,67,5v30.2c0,2.9-0.9,3.1-2.5,3.1h-0.2v0.9
				h8.2v-0.9h-1.7c-2,0-2.8-0.8-2.8-3.1V6.8c0-1.5,1.3-2.2,2.2-0.6l19.4,32.9H90h0.9h0.2V6c0-2.3,0.3-3.9,2.9-3.9h1.6V1.2H85.4v0.9
				h1.7C89.4,2.1,90,3.7,90,6v18.1C90,25.7,88.8,25.9,88,24.5z"/>
			<path class="st0" d="M98.4,2.1c0,0-0.2,0,0.5,0c2,0,1.9,2.1,1.9,3.3v29.4c0,2.1-0.5,3.4-2.8,3.4H97v0.9l13.1,0
				c17.6,0,17.5-16.5,17.5-19c0-2.2,0.1-19-17.5-19l-11.7,0V2.1z M109.7,38.3c-2.2,0-3.6-0.9-3.6-4V6c0-2.8,1.5-4,4.1-4l0.4,0
				c3.7,0,7,1.2,8.8,4.4c1.7,3,2.4,7.5,2.4,13.7c0,7-0.7,11.5-2.3,14.3c-1.5,2.5-4.5,3.8-7.9,3.8L109.7,38.3z"/>
			<path class="st0" d="M26.4,28.8h0.9c0,0,0,7,0,8.8c0,1.4-0.8,1.2-1.2-0.5c-0.2-1.1-1-0.9-1.5-0.4c-1.4,1.3-3.9,3-8,3.2
				c-8,0.4-16.3-7.1-16.3-19.7C0.3,8.5,7.7,0,16.3,0c4.6,0,8.6,2.5,10.4,5.8c2.7,4.8-2.7,7.3-2.1,0.8c0.3-2.9-3.8-5.8-8.3-5.6
				C8.5,1.2,6.6,7.7,6.6,17.4v5.6c0,13.5,4.7,16,10,15.9C25.2,39,26.2,30.5,26.4,28.8z"/>
			<path class="st0" d="M50.1,38.3h-1.9v0.9h14.1v-0.9h-0.8c-1.1,0-2.4-0.5-3.1-2.6L46.8,0.5h-1.4l-0.1,0.2c0,0-8.9,25.4-12,34.2
				c-0.5,1.5-1.3,3.3-3.3,3.3h-0.8v0.9h8.2v-0.9h-1.9c-1.9,0-1.8-1.8-1.2-3.4c0.3-0.7,1.3-3.8,1.8-5.3c0.4-1.2,1.3-1.8,2.5-1.8h8.5
				c1.9,0,2.5,0.6,2.9,1.9c0.3,1,1.4,4.3,1.4,4.3C52.1,35.4,52.8,38.3,50.1,38.3z M47.8,26.8h-9.4c-1.3,0-0.7-1.5-0.6-1.6l4.6-13.1
				c0.5-1.3,1.6-1.4,2.1,0c0,0,3.6,10.9,4.1,12.3C48.7,25.2,49.5,26.8,47.8,26.8z"/>
		</g>
		<path class="st0" d="M158,0.3c-2.3-0.1-4,2.2-6.7,7.1c-0.9,1.7-2.9,5.2-3.6,6.4c-1.1,2-2.8,5-4.7,1.7L136.8,4
			c-0.8-1.4-0.2-1.9,0.8-1.9h0.8V1.2h-12.8v0.9h1.4c2.5,0,3.8,2.4,4.4,3.5c0.6,1.1,7.7,14.2,7.7,14.2c0.7,1.3,1.2,3.3,1.2,4.9
			c0,2.6,0,5.8,0,8.5c0,0.2,0,0.4,0,0.6c0,2.8-1.5,4.5-4,4.5h0h-1.6v0.9h16.7v-0.9h-1.6h0l0,0c-2.5,0-4-1.8-4-4.5c0-0.2,0-0.3,0-0.5
			l0,0v-6.2c0-0.8,0-1.6,0-2.5l0,0v-1.8c0-3.3,1.8-6.7,2.5-8.1c1.2-2.4,1.8-3.4,3.7-6.9c1.1-1.9,2.1-3.4,3.9-4.4
			c1.2-0.6,3.3-1.1,3.3-2.2C159.1,0.6,158.6,0.3,158,0.3z"/>
	</g>
	<g>
		<path class="st0" d="M192,26.7c0,0,0.7,0,2.2,0c2.3,0,3.2,0.5,3.2,3.6l0,2.3c0,3.6-2.5,6.7-7,6.4v0c-5.4-0.2-9.2-3-9.2-15.9v-5.6
			c0-9.7,2-16.2,9.7-16.5c4.5-0.2,8.6,2.7,8.3,5.6c-0.6,6.5,4.8,4.1,2.1-0.8C199.5,2.5,195.5,0,191,0c-8.6,0-16,8.5-16,20.2
			c0,12.4,7.8,19.7,15.5,19.8v0c0,0,0,0,0,0c0.1,0,0.1,0,0.2,0c0.1,0,0.1,0,0.2,0c0,0,0,0,0,0c1.4,0,2.9-0.3,3.9-0.6
			c1-0.3,1.9-0.7,2.6-1.1c0.1,0,0.1-0.1,0.2-0.1c0.2-0.1,0.6-0.3,0.7-0.4c0.1,0,0.1-0.1,0.2-0.1c0,0,0,0,0,0c0.1,0,0.1-0.1,0.2-0.1
			c0.1,0,0.1-0.1,0.2-0.1c0.1,0,0.2-0.1,0.3-0.1c0.1,0,0.1-0.1,0.2-0.1c0.1,0,0.1,0,0.2-0.1c0.1,0,0.1,0,0.2-0.1
			c0.3-0.1,0.5-0.1,0.8-0.1c0.6,0,1,0.2,1.3,0.6c0.6,0.5,1,0.1,1-1.9v-0.8c0-0.2,0-0.3,0-0.5l0-4c0-2.8,0.4-3.6,2-3.6h1v-0.9H192
			V26.7z"/>
		<path class="st0" d="M255.9,38.7c-0.6,0.1-1.1,0.1-1.4,0c-0.1,0-0.2,0-0.2,0c-1.9-0.3-2.4-2.2-2.4-3.3v-3.5c0-1.1,0.3-5.9-2.7-9
			c-1.1-1.1-2.3-2-3.6-2.6c-1.8-0.9-1.7-1.3,0.2-1.7c1.5-0.3,3-0.8,4-1.6c2.9-2.4,2.9-6.2,2.9-6.9c0-1.1,0-8.3-8.7-8.9
			c-0.2,0-0.5,0-0.8,0c-0.4,0-17.5,0-17.5,0v0.9h1.2c1.9,0,2.8,1.2,2.8,3.5v29c0,2.4-0.5,3.7-2.7,3.7h-1.3v0.9h14.5v-0.9h-2.3
			c-2,0-2.8-1-2.8-3.7V22.3c0-1.8,0.5-3,2.8-3h1c4.6,0.2,6.2,3.8,6.5,6.8c0.2,2,0.3,3.4,0.5,6.8c0.1,2,1,6.7,7.5,6.7
			c1.4,0,2.3-0.2,2.9-0.5l-0.1-0.5C256.1,38.6,256.1,38.6,255.9,38.7z M241.1,18.3h-3.2c-2.1,0-2.8-1.2-2.8-3V5.5
			c0-2.2,0.6-3.4,2.8-3.4l3.7,0c1.8,0,3.4,0.6,4.2,1.7c0.9,1.3,1.3,3.3,1.3,6.5c0,2.8-0.4,4.8-1.3,6.2
			C244.8,17.8,243.2,18.3,241.1,18.3z"/>
		<path class="st0" d="M207.8,1.2v0.9h1.5c2.3,0,2.8,1.3,2.8,3.9v28.5c0,2.6-0.5,3.9-2.8,3.9h-1.5v0.9h14v-0.9h-1.5
			c-2.3,0-2.8-1.3-2.8-3.9V5.9c0-2.6,0.5-3.9,2.8-3.9h1.5V1.2H207.8z"/>
		<path class="st0" d="M285.1,34.4c-0.9-0.4-1.8,0.6-2.6,1.4c-1.7,1.7-3.7,2.6-7.3,2.6c-2.8,0-3,0-3,0c-3,0-4.8-1.1-4.8-5V5.8
			c0-2.5,0.5-3.7,3-3.7h1.3V1.2h-13v0.9h0.6c2.3,0,2.8,1.4,2.8,3.4v29.4c0,2-0.1,3.3-1.8,3.3h-0.5v0.9h16.5
			C286.2,39.2,286.6,35.1,285.1,34.4z"/>
	</g>
</g>
<g>
	<path class="st1" d="M12.1,61.3c-0.1,0.4-0.3,0.9-0.5,1.7l-1.2,4.6c-0.1,0.2-0.1,0.4-0.1,0.5c0,0.3,0.2,0.5,0.5,0.5
		c0.3,0,0.9-0.2,1.3-0.5c1-0.7,1.6-2.1,1.6-3.6c0-2.9-2.1-4.8-5.3-4.8c-3.7,0-6.5,2.6-6.5,6.1c0,3.4,2.5,5.7,6.1,5.7
		c1,0,2.1-0.2,2.9-0.5c0.6-0.2,1-0.4,1.7-0.9l0.9,1.4c-1,0.6-1.4,0.8-2.2,1.1C10.3,72.8,9.1,73,8,73c-2.4,0-4.3-0.7-5.7-2.1
		c-1.3-1.3-2-3.1-2-5.2c0-2.1,0.7-3.9,2.1-5.3c1.5-1.5,3.6-2.4,6-2.4c4.2,0,7,2.5,7,6.2c0,2.1-1,4-2.6,5c-0.7,0.4-1.5,0.7-2.2,0.7
		c-1,0-1.5-0.5-1.5-1.3c0,0,0-0.1,0-0.1c-0.5,0.6-0.8,0.9-1.4,1.1c-0.3,0.1-0.7,0.2-1,0.2C5,69.8,4,68.6,4,66.6
		c0-3.2,1.9-5.7,4.4-5.7c1,0,1.6,0.4,1.8,1.1l0.2-0.8H12.1z M6.1,64.3c-0.3,0.7-0.5,1.6-0.5,2.3c0,1.1,0.4,1.7,1.1,1.7
		c0.6,0,1.3-0.5,1.8-1.2c0.6-0.9,1-2.3,1-3.4c0-0.9-0.4-1.4-1.1-1.4C7.5,62.3,6.7,63,6.1,64.3z"/>
	<path class="st1" d="M21.7,72.6c0.1-0.7,0.1-1.4,0.1-2.3v-3.6l-4.2-6.6c-0.3-0.4-0.7-1-1.3-1.9h3.2c0.1,0.5,0.4,1,0.9,1.8l2.6,4.4
		l2.6-4.4c0.5-0.8,0.7-1.3,0.8-1.8h3.1c-0.3,0.4-0.9,1.4-1.2,1.9l-4.2,6.6v3.5c0,0.9,0,1.6,0.1,2.3H21.7z"/>
	<path class="st1" d="M28.9,67.5c0-3.3,2.1-5.5,5.4-5.5c3.3,0,5.3,2.1,5.3,5.5S37.5,73,34.3,73C31,73,28.9,70.9,28.9,67.5z
		 M31.3,67.5c0,2.2,1.2,3.6,3,3.6s3-1.4,3-3.5c0-2.3-1.1-3.7-3-3.7C32.4,63.9,31.3,65.2,31.3,67.5z"/>
	<path class="st1" d="M43.4,69.4c0.3,1.2,1,1.7,2.4,1.7c1.3,0,2.2-0.5,2.2-1.4c0-0.4-0.2-0.7-0.5-0.9c-0.3-0.2-0.5-0.3-1.9-0.6
		c-1.4-0.3-2-0.5-2.6-0.8c-1-0.5-1.6-1.4-1.6-2.4c0-0.6,0.2-1.2,0.6-1.7c0.7-0.9,2-1.4,3.6-1.4c1.5,0,2.6,0.4,3.4,1
		c0.5,0.5,0.7,0.9,1,1.8l-2.4,0.3c-0.2-1-0.8-1.4-2-1.4c-1.1,0-1.9,0.5-1.9,1.3c0,0.3,0.2,0.6,0.6,0.8c0.4,0.2,0.8,0.3,1.8,0.5
		c1.8,0.4,2.6,0.6,3.2,1.1c0.7,0.5,1,1.2,1,2.2c0,0.7-0.3,1.5-0.9,2c-0.8,0.8-2.1,1.2-3.7,1.2c-1.9,0-3.2-0.6-4-1.6
		c-0.3-0.4-0.5-0.8-0.7-1.6L43.4,69.4z"/>
	<path class="st1" d="M54.7,58.3c-0.1,0.7-0.1,1.4-0.1,2.4v2.6c0,0.2,0,0.3,0,0.8c1.1-1.4,2.1-1.9,3.7-1.9c2.3,0,3.6,1.3,3.6,3.6
		v4.5c0,1,0,1.7,0.1,2.3h-2.6c0.1-0.8,0.1-1.4,0.1-2.3v-4c0-0.8-0.2-1.4-0.5-1.8c-0.3-0.3-0.8-0.5-1.2-0.5c-1.4,0-2.4,0.9-3.2,2.7
		v3.6c0,0.9,0,1.6,0.1,2.3h-2.6c0.1-0.8,0.1-1.3,0.1-2.3v-9.6c0-1.1,0-1.6-0.1-2.4H54.7z"/>
	<path class="st1" d="M66.9,58.3v2.3h-2.6v-2.3H66.9z M66.8,62.3c-0.1,0.7-0.1,1.3-0.1,2.4v5.6c0,1,0,1.6,0.1,2.4h-2.6
		c0.1-0.8,0.1-1.4,0.1-2.3v-5.7c0-1,0-1.6-0.1-2.3H66.8z"/>
	<path class="st1" d="M72.9,59.5c-0.1,0.6-0.1,1.4-0.1,2.2v0.6h0.8c0.8,0,1.2,0,1.8-0.1v2.1c-0.6-0.1-0.9-0.1-1.8-0.1h-0.8v5.6
		c0,0.9,0.3,1.2,1.2,1.2c0.5,0,0.8-0.1,1.3-0.4l0.3,1.9c-0.8,0.3-1.3,0.4-2.3,0.4c-2.1,0-2.9-0.7-2.9-2.6v-6.1h-0.7
		c-0.7,0-1,0-1.6,0.1v-2.1c0.5,0.1,0.9,0.1,1.6,0.1h0.7v-0.6c0-0.8-0.1-1.6-0.1-2.2H72.9z"/>
	<path class="st1" d="M83.7,71.5c-0.7,0.7-1.2,0.9-1.9,1.1c-0.5,0.1-1.1,0.2-1.7,0.2c-2.2,0-3.5-1.1-3.5-3c0-1.3,0.8-2.4,2-2.9
		c1.2-0.5,2.5-0.7,5.1-0.7v-0.9c0-1-0.7-1.6-2.1-1.6c-0.7,0-1.5,0.2-1.9,0.5c-0.3,0.3-0.5,0.5-0.7,1.2l-2.3-0.4c0.4-1,0.7-1.5,1.4-2
		c0.9-0.6,1.9-0.9,3.4-0.9c1.7,0,2.8,0.3,3.5,1.1c0.6,0.6,0.8,1.3,0.8,2.5v4.8c0,1,0,1.4,0.1,2.2h-2.4V71.5z M83.7,67.7
		c-3.4,0.1-4.8,0.7-4.8,2.1c0,0.8,0.6,1.4,1.6,1.4c1,0,1.9-0.4,2.5-1c0.4-0.4,0.6-1,0.6-1.6V67.7z"/>
	<path class="st1" d="M90.9,58.3c-0.1,0.7-0.1,1.3-0.1,2.4v5.9l2.7-2.7c0.8-0.8,1.1-1.2,1.4-1.6h3.4c-1,0.9-1,0.9-1.8,1.7l-2.6,2.4
		l3,4.2c1.2,1.7,1.2,1.7,1.6,2.1h-3.2c-0.2-0.6-0.4-0.9-1.2-2l-1.9-2.8l-1.5,1.4v1.2c0,1.2,0,1.6,0.1,2.3h-2.5
		c0.1-0.7,0.1-1.4,0.1-2.3v-9.6c0-1.1,0-1.7-0.1-2.4H90.9z"/>
	<path class="st1" d="M106.9,71.5c-0.7,0.7-1.2,0.9-1.9,1.1c-0.5,0.1-1.1,0.2-1.7,0.2c-2.2,0-3.5-1.1-3.5-3c0-1.3,0.8-2.4,2-2.9
		c1.2-0.5,2.5-0.7,5.1-0.7v-0.9c0-1-0.7-1.6-2.1-1.6c-0.7,0-1.5,0.2-1.9,0.5c-0.3,0.3-0.5,0.5-0.7,1.2l-2.3-0.4c0.4-1,0.7-1.5,1.4-2
		c0.9-0.6,1.9-0.9,3.4-0.9c1.7,0,2.8,0.3,3.5,1.1c0.6,0.6,0.8,1.3,0.8,2.5v4.8c0,1,0,1.4,0.1,2.2h-2.4V71.5z M106.9,67.7
		c-3.4,0.1-4.8,0.7-4.8,2.1c0,0.8,0.6,1.4,1.6,1.4c1,0,1.9-0.4,2.5-1c0.4-0.4,0.6-1,0.6-1.6V67.7z"/>
	<path class="st1" d="M127.7,72.6c-0.1-0.6-0.3-1.4-0.5-1.9l-0.7-2h-5.8l-0.7,2c-0.3,0.9-0.4,1.1-0.5,1.9h-3c0.3-0.5,0.6-1.3,1-2.1
		l4-10.4c0.3-0.9,0.5-1.4,0.6-1.8h3.1c0.1,0.4,0.2,0.7,0.6,1.8l4,10.4c0.5,1.2,0.7,1.7,0.9,2.1H127.7z M123.9,61.4
		c-0.1-0.2-0.1-0.4-0.3-1c-0.3,0.8-0.3,0.8-0.3,1l-1.9,5.3h4.5L123.9,61.4z"/>
	<path class="st1" d="M132,72.6c0.1-0.8,0.1-1.4,0.1-2.3v-5.7c0-1.1,0-1.7-0.1-2.3h2.4v0.9c0,0.1,0,0.4,0,0.7
		c0.5-1.1,1.9-1.8,3.3-1.8c1,0,1.8,0.3,2.3,0.8c0.3,0.3,0.5,0.5,0.7,1.1c0.6-0.8,1-1.1,1.5-1.4c0.6-0.3,1.2-0.5,2-0.5
		c1.2,0,2.1,0.4,2.7,1c0.6,0.6,0.8,1.5,0.8,2.7v4.4c0,1,0,1.6,0.1,2.3h-2.6c0.1-0.7,0.1-1.3,0.1-2.3v-4c0-1.6-0.6-2.3-1.8-2.3
		c-0.6,0-1,0.2-1.5,0.5c-0.6,0.5-0.9,1.1-1.1,2.2v3.6c0,1,0,1.6,0.1,2.3h-2.6c0.1-0.8,0.1-1.3,0.1-2.3v-4c0-1.5-0.6-2.3-1.7-2.3
		c-0.8,0-1.4,0.3-1.9,0.9c-0.4,0.5-0.6,0.9-0.8,1.8v3.6c0,1,0,1.5,0.1,2.3H132z"/>
	<path class="st1" d="M157,71.5c-0.7,0.7-1.2,0.9-1.9,1.1c-0.5,0.1-1.1,0.2-1.7,0.2c-2.2,0-3.5-1.1-3.5-3c0-1.3,0.8-2.4,2-2.9
		c1.2-0.5,2.5-0.7,5.1-0.7v-0.9c0-1-0.7-1.6-2.1-1.6c-0.7,0-1.5,0.2-1.9,0.5c-0.3,0.3-0.5,0.5-0.7,1.2l-2.3-0.4c0.4-1,0.7-1.5,1.4-2
		c0.9-0.6,1.9-0.9,3.4-0.9c1.7,0,2.8,0.3,3.5,1.1c0.6,0.6,0.8,1.3,0.8,2.5v4.8c0,1,0,1.4,0.1,2.2H157V71.5z M157,67.7
		c-3.4,0.1-4.8,0.7-4.8,2.1c0,0.8,0.6,1.4,1.6,1.4c1,0,1.9-0.4,2.5-1c0.4-0.4,0.6-1,0.6-1.6V67.7z"/>
	<path class="st1" d="M161.6,72.6c0.1-0.8,0.1-1.3,0.1-2.3v-5.7c0-1,0-1.6-0.1-2.3h2.4v1c0,0.3,0,0.3,0,0.8c1.1-1.4,2.1-1.9,3.7-1.9
		c1.4,0,2.4,0.5,3.1,1.3c0.4,0.6,0.6,1.3,0.6,2.5v4.3c0,1,0,1.7,0.1,2.3h-2.6c0.1-0.8,0.1-1.4,0.1-2.3v-4c0-0.8-0.1-1.2-0.3-1.6
		c-0.3-0.5-0.8-0.7-1.5-0.7c-1.3,0-2.4,0.9-3.2,2.7v3.6c0,0.9,0,1.6,0.1,2.3H161.6z"/>
	<path class="st1" d="M173.3,67.5c0-3.3,2.1-5.5,5.4-5.5c3.3,0,5.3,2.1,5.3,5.5s-2.1,5.5-5.3,5.5C175.4,73,173.3,70.9,173.3,67.5z
		 M175.6,67.5c0,2.2,1.2,3.6,3,3.6s3-1.4,3-3.5c0-2.3-1.1-3.7-3-3.7C176.7,63.9,175.6,65.2,175.6,67.5z"/>
</g>
</svg>
