<?xml version="1.0" encoding="utf-8"?>
<!-- Generator: Adobe Illustrator 25.4.1, SVG Export Plug-In . SVG Version: 6.00 Build 0)  -->
<svg version="1.1" id="レイヤー_1" xmlns="http://www.w3.org/2000/svg" xmlns:xlink="http://www.w3.org/1999/xlink" x="0px"
	 y="0px" viewBox="0 0 68 24" style="enable-background:new 0 0 68 24;" xml:space="preserve">
<style type="text/css">
	.st0{fill:#040000;}
</style>
<g>
	<path class="st0" d="M6.5,1.2C4.8,1.4,4.7,1.5,4.7,3.4v8c0,2.8-0.4,4.5-2,5.8c-0.8,0.7-1.5,1-2.2,1.3l-0.4-0.7
		c1.2-0.6,1.9-1.6,2.2-2.9c0.2-1.1,0.2-2.4,0.2-4.2V3.4c0-1.8-0.2-2-2-2.2V0.5h6V1.2z"/>
	<path class="st0" d="M14,0.5c1.6,0,2.9,0.3,3.8,0.9c0.9,0.7,1.5,1.7,1.5,3.2c0,3.2-2.7,4.5-4.9,4.5c-0.2,0-0.5,0-0.6,0l-1.5-0.4
		v3.4c0,1.8,0.2,1.9,2.2,2.1v0.7H8.2v-0.7c1.8-0.2,2-0.3,2-2.1V3.4c0-1.9-0.2-2-2-2.2V0.5H14z M12.3,7.9c0.3,0.1,0.8,0.3,1.5,0.3
		c1.4,0,3.2-0.7,3.2-3.5c0-2.4-1.5-3.4-3.3-3.4c-0.6,0-1,0.1-1.2,0.3c-0.2,0.1-0.2,0.4-0.2,1V7.9z"/>
	<path class="st0" d="M27,16.3h-1.3l5.9-16.1H33L27,16.3z"/>
	<path class="st0" d="M51.2,11.3c-0.1,0.6-0.7,2.9-0.9,3.5H39.4v-0.6c2-0.2,2.2-0.3,2.2-2.2V3.4c0-1.9-0.2-2.1-1.9-2.2V0.5h6.8
		c2.1,0,3,0,3.2,0c0,0.5,0.1,2.2,0.2,3.4L49.3,4c-0.2-0.7-0.4-1.3-0.7-1.7c-0.4-0.7-0.8-0.8-2.1-0.8h-2c-0.7,0-0.8,0.1-0.8,0.7V7
		h2.4c1.6,0,1.7-0.3,2-1.8h0.7v4.6h-0.7c-0.3-1.6-0.5-1.8-2-1.8h-2.4v4.3c0,1.5,0.4,1.7,1.6,1.7h2c1.3,0,1.6-0.2,2-0.8
		c0.4-0.5,0.9-1.4,1.2-2.1L51.2,11.3z"/>
	<path class="st0" d="M67.9,1.2C66.5,1.4,66,1.6,66,2.6c0,0.7-0.1,1.6-0.1,3.6v8.8H65L55.6,3.6V9c0,2,0.1,2.9,0.1,3.6
		c0.1,1.1,0.6,1.5,2.2,1.6v0.7h-5.4v-0.7c1.3-0.1,1.9-0.4,2-1.5C54.6,12,54.6,11,54.6,9V3.5c0-0.6,0-1-0.4-1.5
		c-0.4-0.6-0.9-0.7-1.9-0.8V0.5h3.5l9.2,10.8V6.2c0-2,0-2.9-0.1-3.6c-0.1-1-0.5-1.3-2.3-1.4V0.5h5.4V1.2z"/>
	<rect x="0.1" y="22.9" class="st0" width="19.2" height="1"/>
</g>
</svg>
