<?xml version="1.0" encoding="utf-8"?>
<!-- Generator: Adobe Illustrator 25.4.1, SVG Export Plug-In . SVG Version: 6.00 Build 0)  -->
<svg version="1.1" id="レイヤー_1" xmlns="http://www.w3.org/2000/svg" xmlns:xlink="http://www.w3.org/1999/xlink" x="0px"
	 y="0px" viewBox="0 0 600 69" style="enable-background:new 0 0 600 69;" xml:space="preserve">
<g id="レイヤー_2">
</g>
<g>
	<polygon points="0,0.5 0,10.5 18.9,10.5 18.9,68.5 31.7,68.5 31.7,10.5 49.8,10.5 64.2,68.5 76.3,68.5 90.1,18.9 103.5,68.5 
		116.2,68.5 133.2,0.5 121.4,0.5 109.2,50.7 95.7,0.5 85.2,0.5 72,50.4 60.2,0.5 	"/>
	<rect x="144.2" y="0.5" width="12.7" height="68"/>
	<polygon points="217.2,49.7 188.6,0.5 173.4,0.5 173.4,68.5 184.9,68.5 184.9,16.4 215.6,68.5 228.7,68.5 228.7,0.5 217.2,0.5 	"/>
	<path d="M308.1,5.8c-4.5-3.6-10.6-5.3-18.5-5.3h-21.9v68h12.7V42.6h9.5c7.6,0,13.7-1.7,18.2-5.2c4.5-3.5,6.8-8.6,6.8-15.6v-0.4
		C314.8,14.6,312.6,9.4,308.1,5.8z M302.4,21.9c0,7.7-4.3,11.6-12.8,11.6h-9.2V10.3h9.2c8.6,0,12.8,3.7,12.8,11.2V21.9z"/>
	<path d="M367.7,58.4h-29V0.5H326v68h50.4l5.3-16.8h26l5.4,16.8h13.1l-22.5-68h-16.6L367.7,58.4z M384.7,42.4l10.1-31.6l10,31.6
		H384.7z"/>
	<polygon points="480.8,49.7 452.2,0.5 437,0.5 437,68.5 448.5,68.5 448.5,16.4 479.2,68.5 492.3,68.5 492.3,0.5 480.8,0.5 	"/>
	<polygon points="568.3,10.5 568.3,68.5 581.1,68.5 581.1,10.5 600,10.5 600,0.5 508.3,0.5 508.3,68.5 552.4,68.5 552.4,58.5 
		520.9,58.5 520.9,38.6 544.9,38.6 544.9,29.1 520.9,29.1 520.9,10.5 	"/>
</g>
</svg>
