<?xml version="1.0" encoding="utf-8"?>
<!-- Generator: Adobe Illustrator 25.4.1, SVG Export Plug-In . SVG Version: 6.00 Build 0)  -->
<svg version="1.1" id="レイヤー_1" xmlns="http://www.w3.org/2000/svg" xmlns:xlink="http://www.w3.org/1999/xlink" x="0px"
	 y="0px" viewBox="0 0 250 35" style="enable-background:new 0 0 250 35;" xml:space="preserve">
<style type="text/css">
	.st0{fill:#231815;}
</style>
<g>
	<g>
		<g>
			<path class="st0" d="M76.9,21.4L64.9,1h-6.1c0,0-3.4,0-3.4,0v0.8h1c1.6,0,2.1,0.6,2.1,2.6v26.4c0,2.6-0.8,2.7-2.2,2.7h-0.2v0.8
				h7.2v-0.8h-1.4c-1.8,0-2.4-0.7-2.4-2.7V5.9c0-1.3,1.1-1.9,1.9-0.5l17,28.8h0.3h0.8h0.2v-29c0-2,0.3-3.4,2.5-3.4h1.4V1h-8.9v0.8
				h1.5c2,0,2.5,1.4,2.5,3.4v15.9C78.6,22.5,77.6,22.6,76.9,21.4z"/>
			<path class="st0" d="M86,1.8c0,0-0.2,0,0.4,0c1.8,0,1.7,1.8,1.7,2.9v25.7c0,1.8-0.4,3-2.5,3h-0.8v0.8l11.5,0
				c15.4,0,15.3-14.4,15.3-16.6c0-1.9,0.1-16.6-15.3-16.6L86,1V1.8z M95.9,33.5c-1.9,0-3.1-0.8-3.1-3.5V5.3c0-2.4,1.3-3.5,3.6-3.5
				l0.4,0c3.2,0,6.1,1,7.7,3.9c1.5,2.6,2.1,6.6,2.1,12c0,6.1-0.6,10-2.1,12.5c-1.3,2.2-3.9,3.4-6.9,3.4L95.9,33.5z"/>
			<path class="st0" d="M22.9,25.2h0.8c0,0,0,6.1,0,7.7c0,1.2-0.7,1.1-1-0.4c-0.2-1-0.9-0.8-1.3-0.4c-1.2,1.1-3.4,2.6-7,2.8
				c-7,0.4-14.3-6.2-14.3-17.2C0.1,7.4,6.6,0,14.1,0c4,0,7.5,2.2,9.1,5c2.3,4.2-2.4,6.4-1.9,0.7c0.3-2.5-3.3-5.1-7.2-4.9
				C7.3,1.1,5.6,6.7,5.6,15.2v4.9c0,11.8,4.1,14,8.7,14C21.9,34.1,22.8,26.6,22.9,25.2z"/>
			<path class="st0" d="M43.7,33.5h-1.7v0.8h12.3v-0.8h-0.7c-0.9,0-2.1-0.5-2.7-2.2L40.8,0.4h-1.2l-0.1,0.2c0,0-7.8,22.3-10.5,29.9
				c-0.5,1.3-1.2,2.9-2.9,2.9h-0.7v0.8h7.2v-0.8H31c-1.6,0-1.5-1.6-1.1-3c0.2-0.6,1.2-3.3,1.6-4.6c0.4-1,1.1-1.6,2.2-1.6h7.5
				c1.7,0,2.2,0.5,2.5,1.7c0.3,0.9,1.2,3.7,1.2,3.7C45.5,31,46.1,33.5,43.7,33.5z M41.7,23.5h-8.2c-1.1,0-0.6-1.3-0.5-1.4l4-11.4
				c0.4-1.2,1.4-1.2,1.8,0c0,0,3.1,9.5,3.6,10.8C42.5,22,43.2,23.5,41.7,23.5z"/>
		</g>
		<path class="st0" d="M138.2,0.2c-2-0.1-3.5,1.9-5.9,6.2c-0.8,1.5-2.6,4.6-3.1,5.6c-1,1.8-2.5,4.4-4.1,1.5l-5.4-10
			c-0.7-1.2-0.2-1.7,0.7-1.7h0.7V1h-11.2v0.8h1.2c2.2,0,3.3,2.1,3.9,3.1c0.5,1,6.7,12.4,6.7,12.4c0.6,1.2,1,2.9,1,4.3
			c0,2.3,0,5.1,0,7.4c0,0.2,0,0.4,0,0.6c0,2.4-1.3,4-3.5,4h0h-1.4v0.8h14.6v-0.8h-1.4h0l0,0c-2.2,0-3.5-1.5-3.5-4c0-0.1,0-0.3,0-0.4
			l0,0v-5.4c0-0.7,0-1.4,0-2.1l0,0V20c0-2.9,1.6-5.9,2.2-7.1c1-2.1,1.6-3,3.2-6c0.9-1.7,1.8-3,3.4-3.8c1-0.5,2.9-1,2.9-2
			C139.1,0.5,138.6,0.3,138.2,0.2z"/>
	</g>
	<g>
		<path class="st0" d="M167.9,23.3c0,0,0.6,0,1.9,0c2,0,2.8,0.5,2.8,3.2l0,2c0,3.1-2.1,5.8-6.1,5.6v0c-4.7-0.2-8-2.7-8-13.9v-4.9
			c0-8.5,1.7-14.2,8.5-14.4c3.9-0.2,7.5,2.4,7.2,4.9c-0.5,5.7,4.2,3.6,1.9-0.7c-1.6-2.9-5.1-5-9.1-5c-7.5,0-14,7.4-14,17.7
			c0,10.9,6.8,17.2,13.6,17.3v0c0,0,0,0,0,0c0.1,0,0.1,0,0.2,0c0,0,0.1,0,0.1,0c0,0,0,0,0,0c1.2,0,2.6-0.3,3.4-0.6
			c0.9-0.3,1.6-0.6,2.3-1c0.1,0,0.1-0.1,0.1-0.1c0.2-0.1,0.5-0.3,0.6-0.3c0.1,0,0.1-0.1,0.2-0.1c0,0,0,0,0,0c0.1,0,0.1-0.1,0.2-0.1
			c0,0,0.1,0,0.1-0.1c0.1,0,0.2-0.1,0.2-0.1c0.1,0,0.1,0,0.2-0.1c0.1,0,0.1,0,0.2-0.1c0.1,0,0.1,0,0.2-0.1c0.2-0.1,0.5-0.1,0.7-0.1
			c0.5,0,0.9,0.2,1.2,0.5c0.5,0.5,0.8,0.1,0.8-1.7v-0.7c0-0.1,0-0.3,0-0.4l0-3.5c0-2.5,0.3-3.2,1.8-3.2h0.9v-0.8h-12.1V23.3z"/>
		<path class="st0" d="M223.8,33.8c-0.5,0.1-0.9,0.1-1.2,0c-0.1,0-0.1,0-0.2,0c-1.6-0.3-2.1-1.9-2.1-2.9v-3.1c0-1,0.3-5.1-2.3-7.8
			c-0.9-1-2-1.7-3.1-2.3c-1.6-0.8-1.5-1.1,0.2-1.5c1.3-0.3,2.6-0.7,3.5-1.4c2.6-2.1,2.6-5.4,2.6-6c0-1,0-7.3-7.6-7.8
			c-0.1,0-0.5,0-0.7,0c-0.4,0-15.4,0-15.4,0v0.8h1c1.7,0,2.4,1.1,2.4,3.1v25.4c0,2.1-0.5,3.2-2.4,3.2h-1.1v0.8H210v-0.8h-2
			c-1.8,0-2.4-0.9-2.4-3.2V19.5c0-1.6,0.4-2.7,2.5-2.7h0.9c4,0.2,5.4,3.3,5.7,5.9c0.2,1.8,0.3,3,0.4,6c0.1,1.7,0.8,5.9,6.5,5.9
			c1.2,0,2-0.2,2.6-0.4l-0.1-0.5C224,33.8,223.9,33.8,223.8,33.8z M210.8,16H208c-1.8,0-2.5-1.1-2.5-2.7V4.8c0-1.9,0.6-3,2.4-3
			l3.2,0c1.6,0,3,0.5,3.7,1.5c0.8,1.1,1.1,2.9,1.1,5.6c0,2.4-0.4,4.2-1.1,5.4C214.1,15.6,212.6,16,210.8,16z"/>
		<path class="st0" d="M181.7,1v0.8h1.3c2,0,2.4,1.1,2.4,3.4v24.9c0,2.2-0.4,3.4-2.4,3.4h-1.3v0.8h12.2v-0.8h-1.3
			c-2,0-2.4-1.1-2.4-3.4V5.2c0-2.2,0.4-3.4,2.4-3.4h1.3V1H181.7z"/>
		<path class="st0" d="M249.3,30.1c-0.8-0.4-1.6,0.5-2.3,1.3c-1.5,1.5-3.3,2.3-6.3,2.3c-2.4,0-2.7,0-2.7,0c-2.7,0-4.2-0.9-4.2-4.4
			V5.1c0-2.2,0.4-3.2,2.6-3.2h1.1V1h-11.4v0.8h0.6c2,0,2.4,1.2,2.4,3v25.7c0,1.7-0.1,2.9-1.6,2.9h-0.4v0.8h14.5
			C250.3,34.3,250.6,30.7,249.3,30.1z"/>
	</g>
</g>
</svg>
