<?xml version="1.0" encoding="utf-8"?>
<!-- Generator: Adobe Illustrator 25.4.1, SVG Export Plug-In . SVG Version: 6.00 Build 0)  -->
<svg version="1.1" id="レイヤー_1" xmlns="http://www.w3.org/2000/svg" xmlns:xlink="http://www.w3.org/1999/xlink" x="0px"
	 y="0px" viewBox="0 0 530 114" style="enable-background:new 0 0 530 114;" xml:space="preserve">
<style type="text/css">
	.st0{fill:#FFFFFF;}
</style>
<g>
	<path class="st0" d="M0,113V1h15.4L36,60.3h0.3L56.8,1h15.6v112H56.3V44.9H56L40.1,93h-8L16.4,44.9h-0.3V113H0z"/>
	<path class="st0" d="M95.8,113V1h16.1v112H95.8z"/>
	<path class="st0" d="M134.7,113V1h15.4l24.2,67.5h0.3V1h16.1v112h-15.1l-24.5-67.4h-0.3V113H134.7z"/>
	<path class="st0" d="M223.6,113V16.1H205V1h53.2v15.1h-18.6V113H223.6z"/>
	<path class="st0" d="M362.3,33.2h-16.1v-3.6c0-3.7-0.9-6.8-2.6-9.5c-1.7-2.7-4.6-4-8.7-4c-2.2,0-4,0.4-5.4,1.3
		c-1.4,0.8-2.5,1.9-3.3,3.1c-0.8,1.4-1.4,2.9-1.7,4.6c-0.3,1.7-0.5,3.5-0.5,5.4c0,2.2,0.1,4,0.2,5.5c0.2,1.5,0.6,2.8,1.2,3.9
		c0.6,1.2,1.5,2.2,2.8,3c1.2,0.8,2.9,1.7,5,2.5l12.3,4.9c3.6,1.4,6.5,3,8.7,4.8c2.2,1.8,3.9,4,5.2,6.4c1.2,2.5,1.9,5.4,2.4,8.6
		c0.4,3.2,0.6,6.8,0.6,10.9c0,4.7-0.5,9.1-1.4,13.1c-0.9,4-2.5,7.5-4.6,10.3c-2.2,2.9-5.1,5.2-8.7,6.9c-3.6,1.7-7.9,2.5-13.1,2.5
		c-3.9,0-7.5-0.7-10.9-2c-3.4-1.4-6.2-3.3-8.7-5.7c-2.4-2.4-4.3-5.2-5.7-8.4c-1.4-3.2-2.1-6.7-2.1-10.5v-6h16.1v5
		c0,2.9,0.9,5.6,2.6,7.9c1.7,2.4,4.6,3.5,8.7,3.5c2.7,0,4.9-0.4,6.4-1.2c1.5-0.8,2.7-1.9,3.5-3.4c0.8-1.5,1.3-3.2,1.5-5.3
		c0.2-2,0.2-4.3,0.2-6.8c0-2.9-0.1-5.4-0.3-7.2c-0.2-1.9-0.6-3.4-1.3-4.6c-0.7-1.2-1.7-2.1-2.9-2.8c-1.2-0.7-2.8-1.5-4.8-2.4
		l-11.5-4.7c-6.9-2.8-11.6-6.6-13.9-11.3c-2.4-4.7-3.5-10.5-3.5-17.5c0-4.2,0.6-8.2,1.7-12c1.2-3.8,2.9-7,5.2-9.8
		c2.2-2.7,5-4.9,8.4-6.5c3.4-1.6,7.5-2.4,12.2-2.4c4,0,7.6,0.7,10.9,2.2c3.3,1.5,6.2,3.4,8.6,5.8c4.8,5,7.2,10.8,7.2,17.3V33.2z"/>
	<path class="st0" d="M382.6,113V1h16.1v112H382.6z"/>
	<path class="st0" d="M432.6,113V16.1H414V1h53.2v15.1h-18.6V113H432.6z"/>
	<path class="st0" d="M482.2,113V1H530v15.1h-31.8V49h27.7v15.1h-27.7V97H530V113H482.2z"/>
</g>
</svg>
