<?xml version="1.0" encoding="utf-8"?>
<!-- Generator: Adobe Illustrator 25.4.1, SVG Export Plug-In . SVG Version: 6.00 Build 0)  -->
<svg version="1.1" id="レイヤー_1" xmlns="http://www.w3.org/2000/svg" xmlns:xlink="http://www.w3.org/1999/xlink" x="0px"
	 y="0px" viewBox="0 0 67 23" style="enable-background:new 0 0 67 23;" xml:space="preserve">
<style type="text/css">
	.st0{fill:#040000;}
</style>
<g>
	<path class="st0" d="M0.1,17.1V0h3.9C7,0,8.4,1.7,8.4,5c0,1-0.2,1.9-0.5,2.6S7.1,8.9,6.3,9.3l2.6,7.8H6.3L4.1,9.8H2.6v7.3H0.1z
		 M2.6,2.3v5.3H4c0.4,0,0.8-0.1,1-0.2c0.3-0.1,0.5-0.3,0.6-0.5c0.1-0.2,0.2-0.5,0.3-0.8c0-0.3,0.1-0.7,0.1-1.1c0-0.4,0-0.8-0.1-1.1
		c0-0.3-0.1-0.6-0.3-0.9C5.3,2.5,4.7,2.3,3.9,2.3H2.6z"/>
	<path class="st0" d="M10,9c0-0.5,0-1,0.1-1.4c0.1-0.4,0.2-0.8,0.4-1.1c0.3-0.5,0.7-1,1.2-1.3c0.5-0.3,1.2-0.5,2-0.5s1.4,0.2,2,0.5
		c0.5,0.3,0.9,0.7,1.2,1.3c0.2,0.3,0.3,0.7,0.4,1.1C17.3,8,17.3,8.5,17.3,9v4c0,0.5,0,1-0.1,1.4c-0.1,0.4-0.2,0.8-0.4,1.1
		c-0.3,0.5-0.7,1-1.2,1.3c-0.5,0.3-1.2,0.5-2,0.5s-1.4-0.2-2-0.5c-0.5-0.3-0.9-0.7-1.2-1.3c-0.2-0.3-0.3-0.7-0.4-1.1
		C10,14,10,13.5,10,13V9z M12.5,13.4c0,0.5,0.1,0.8,0.3,1s0.5,0.3,0.9,0.3s0.7-0.1,0.9-0.3c0.2-0.2,0.3-0.6,0.3-1V8.6
		c0-0.5-0.1-0.8-0.3-1c-0.2-0.2-0.5-0.3-0.9-0.3S13,7.3,12.8,7.6c-0.2,0.2-0.3,0.6-0.3,1V13.4z"/>
	<path class="st0" d="M23.7,17.1v-1.2h0c-0.3,0.4-0.6,0.8-1,1c-0.3,0.2-0.8,0.4-1.4,0.4c-0.3,0-0.6,0-0.9-0.1
		c-0.3-0.1-0.6-0.3-0.9-0.5c-0.3-0.2-0.5-0.5-0.7-1c-0.2-0.4-0.3-1-0.3-1.6c0-0.7,0.1-1.3,0.2-1.8c0.1-0.5,0.3-1,0.6-1.3
		c0.3-0.3,0.7-0.6,1.2-0.8s1.1-0.3,1.9-0.3c0.1,0,0.2,0,0.3,0s0.2,0,0.3,0c0.1,0,0.2,0,0.3,0s0.2,0,0.4,0V8.7c0-0.4-0.1-0.8-0.3-1
		c-0.2-0.3-0.5-0.4-1-0.4c-0.3,0-0.6,0.1-0.9,0.3S21.2,8,21.1,8.4h-2.4c0.1-1.1,0.4-2,1.1-2.6c0.3-0.3,0.7-0.6,1.2-0.8
		c0.4-0.2,1-0.3,1.5-0.3c0.5,0,1,0.1,1.4,0.2c0.4,0.2,0.8,0.4,1.2,0.7c0.3,0.3,0.6,0.7,0.8,1.2c0.2,0.5,0.3,1,0.3,1.7v8.5H23.7z
		 M23.7,11.9c-0.3,0-0.5-0.1-0.7-0.1c-0.5,0-1,0.1-1.4,0.4c-0.4,0.2-0.6,0.7-0.6,1.4c0,0.5,0.1,0.8,0.3,1.1c0.2,0.3,0.5,0.4,0.9,0.4
		c0.4,0,0.7-0.1,1-0.4s0.3-0.7,0.3-1.2V11.9z"/>
	<path class="st0" d="M32.9,17.1V16c-0.2,0.2-0.3,0.3-0.5,0.5s-0.3,0.3-0.5,0.4s-0.4,0.2-0.6,0.3c-0.2,0.1-0.5,0.1-0.8,0.1
		c-1,0-1.7-0.4-2.1-1.2c-0.1-0.3-0.2-0.6-0.3-1C28,14.7,28,14.1,28,13.5V8.8c0-0.9,0-1.5,0.1-1.9c0.1-0.8,0.5-1.4,1.1-1.8
		c0.3-0.2,0.8-0.3,1.4-0.3c0.5,0,0.9,0.1,1.3,0.3c0.4,0.2,0.7,0.5,1,0.9h0V0h2.4v17.1H32.9z M30.4,13.1c0,0.5,0.1,0.9,0.3,1.2
		c0.2,0.3,0.5,0.5,0.9,0.5c0.4,0,0.7-0.1,0.9-0.4c0.2-0.3,0.3-0.6,0.3-1.1V8.5c0-0.4-0.1-0.7-0.3-0.9c-0.2-0.2-0.5-0.4-0.9-0.4
		c-0.5,0-0.8,0.1-0.9,0.4s-0.3,0.6-0.3,1V13.1z"/>
	<path class="st0" d="M37.5,17.1V0h2.4L43,9h0l3.1-9h2.4v17.1h-2.4V6.7h0L43.6,14h-1.2L40,6.7h0v10.4H37.5z"/>
	<path class="st0" d="M55.3,17.1v-1.2h0c-0.3,0.4-0.6,0.8-1,1c-0.3,0.2-0.8,0.4-1.4,0.4c-0.3,0-0.6,0-0.9-0.1
		c-0.3-0.1-0.6-0.3-0.9-0.5c-0.3-0.2-0.5-0.5-0.7-1c-0.2-0.4-0.3-1-0.3-1.6c0-0.7,0.1-1.3,0.2-1.8c0.1-0.5,0.3-1,0.6-1.3
		c0.3-0.3,0.7-0.6,1.2-0.8s1.1-0.3,1.9-0.3c0.1,0,0.2,0,0.3,0s0.2,0,0.3,0c0.1,0,0.2,0,0.3,0s0.2,0,0.4,0V8.7c0-0.4-0.1-0.8-0.3-1
		c-0.2-0.3-0.5-0.4-1-0.4c-0.3,0-0.6,0.1-0.9,0.3S52.8,8,52.7,8.4h-2.4c0.1-1.1,0.4-2,1.1-2.6c0.3-0.3,0.7-0.6,1.2-0.8
		c0.4-0.2,1-0.3,1.5-0.3c0.5,0,1,0.1,1.4,0.2c0.4,0.2,0.8,0.4,1.2,0.7c0.3,0.3,0.6,0.7,0.8,1.2c0.2,0.5,0.3,1,0.3,1.7v8.5H55.3z
		 M55.3,11.9c-0.3,0-0.5-0.1-0.7-0.1c-0.5,0-1,0.1-1.4,0.4c-0.4,0.2-0.6,0.7-0.6,1.4c0,0.5,0.1,0.8,0.3,1.1c0.2,0.3,0.5,0.4,0.9,0.4
		c0.4,0,0.7-0.1,1-0.4s0.3-0.7,0.3-1.2V11.9z"/>
	<path class="st0" d="M59.5,22V4.9H62V6c0.3-0.4,0.6-0.6,0.9-0.9c0.3-0.2,0.8-0.4,1.4-0.4c1,0,1.7,0.4,2.1,1.2
		c0.1,0.3,0.2,0.6,0.3,1s0.1,0.9,0.1,1.6v4.6c0,0.9,0,1.5-0.1,1.9c-0.1,0.8-0.5,1.4-1.1,1.8c-0.3,0.2-0.8,0.3-1.4,0.3
		c-0.5,0-0.9-0.1-1.3-0.3c-0.4-0.2-0.7-0.5-1-0.9h0v6H59.5z M64.4,8.9c0-0.5-0.1-0.9-0.3-1.2c-0.2-0.3-0.5-0.5-0.9-0.5
		c-0.4,0-0.7,0.1-0.9,0.4S62,8.3,62,8.7v4.7c0,0.4,0.1,0.7,0.3,0.9c0.2,0.2,0.5,0.4,0.9,0.4c0.5,0,0.8-0.1,0.9-0.4
		c0.2-0.3,0.3-0.6,0.3-1V8.9z"/>
</g>
</svg>
