<?xml version="1.0" encoding="utf-8"?>
<!-- Generator: Adobe Illustrator 25.4.1, SVG Export Plug-In . SVG Version: 6.00 Build 0)  -->
<svg version="1.1" id="レイヤー_1" xmlns="http://www.w3.org/2000/svg" xmlns:xlink="http://www.w3.org/1999/xlink" x="0px"
	 y="0px" viewBox="0 0 39 23" style="enable-background:new 0 0 39 23;" xml:space="preserve">
<style type="text/css">
	.st0{fill:#040000;}
</style>
<g>
	<path class="st0" d="M2.9,17.1V2.3H0.1V0h8.1v2.3H5.3v14.8H2.9z"/>
	<path class="st0" d="M9.3,17.1V0h7.3v2.3h-4.8v5h4.2v2.3h-4.2v5h4.8v2.4H9.3z"/>
	<path class="st0" d="M17,17.1L20.8,0h2l3.8,17.1h-2.4l-0.7-3.7h-3.3l-0.7,3.7H17z M23.1,11.1l-1.2-6.2h0l-1.2,6.2H23.1z"/>
	<path class="st0" d="M27.9,17.1V0h2.4l3.1,9h0l3.1-9h2.4v17.1h-2.4V6.7h0L34,14h-1.2l-2.4-7.3h0v10.4H27.9z"/>
</g>
</svg>
