<?xml version="1.0" encoding="utf-8"?>
<!-- Generator: Adobe Illustrator 25.4.1, SVG Export Plug-In . SVG Version: 6.00 Build 0)  -->
<svg version="1.1" id="レイヤー_1" xmlns="http://www.w3.org/2000/svg" xmlns:xlink="http://www.w3.org/1999/xlink" x="0px"
	 y="0px" viewBox="0 0 100 23" style="enable-background:new 0 0 100 23;" xml:space="preserve">
<style type="text/css">
	.st0{fill:#040000;}
</style>
<g>
	<g>
		<path class="st0" d="M3.5,17.1V2.3H0.7V0h8.1v2.3H6v14.8H3.5z"/>
		<path class="st0" d="M22.6,0L20,17.1h-2.3L15.8,6h0l-1.8,11.1h-2.3L9.1,0h2.6l1.2,10.8h0L14.9,0h1.9l2,11.1h0L20,0H22.6z"/>
		<path class="st0" d="M24.2,17.1V0h2.4v17.1H24.2z"/>
		<path class="st0" d="M28.9,17.1V0h2.4l3.7,10.3h0V0h2.4v17.1h-2.3L31.4,6.8h0v10.3H28.9z"/>
		<path class="st0" d="M44.1,17.1V0h3.7c0.7,0,1.3,0.1,1.8,0.3c0.5,0.2,1,0.5,1.4,0.9c0.4,0.4,0.7,1,0.9,1.6
			c0.2,0.6,0.2,1.4,0.2,2.4c0,0.8,0,1.4-0.1,1.9c-0.1,0.5-0.3,1-0.6,1.5c-0.3,0.6-0.8,1-1.3,1.3c-0.6,0.3-1.3,0.5-2.2,0.5h-1.2v6.7
			H44.1z M46.6,2.3v5.8h1.2c0.5,0,0.9-0.1,1.2-0.2c0.3-0.1,0.5-0.3,0.6-0.6c0.1-0.2,0.2-0.5,0.2-0.9c0-0.4,0-0.7,0-1.2
			c0-0.4,0-0.8,0-1.1c0-0.4-0.1-0.7-0.2-0.9c-0.1-0.3-0.3-0.5-0.6-0.6c-0.3-0.1-0.6-0.2-1.1-0.2H46.6z"/>
		<path class="st0" d="M53.9,17.1V0h2.4v14.6h4.8v2.4H53.9z"/>
		<path class="st0" d="M61.7,17.1L65.5,0h2l3.8,17.1h-2.4l-0.7-3.7h-3.3l-0.7,3.7H61.7z M67.7,11.1l-1.2-6.2h0l-1.2,6.2H67.7z"/>
		<path class="st0" d="M72.4,17.1V0h2.4l3.7,10.3h0V0H81v17.1h-2.3L74.9,6.8h0v10.3H72.4z"/>
		<path class="st0" d="M83.2,17.1V0h7.3v2.3h-4.8v5h4.2v2.3h-4.2v5h4.8v2.4H83.2z"/>
		<path class="st0" d="M94.6,17.1V2.3h-2.8V0h8.1v2.3H97v14.8H94.6z"/>
	</g>
</g>
</svg>
