<?xml version="1.0" encoding="utf-8"?>
<!-- Generator: Adobe Illustrator 25.4.1, SVG Export Plug-In . SVG Version: 6.00 Build 0)  -->
<svg version="1.1" id="レイヤー_1" xmlns="http://www.w3.org/2000/svg" xmlns:xlink="http://www.w3.org/1999/xlink" x="0px"
	 y="0px" viewBox="0 0 163 64" style="enable-background:new 0 0 163 64;" xml:space="preserve">
<g>
	<g>
		<path d="M10.9,63.1V8.9H0.5V0.4h29.7v8.4H19.9v54.2H10.9z"/>
		<path d="M54.2,44.1H36.4v6.1c0,1.4,0.4,2.5,1.2,3.3c0.8,0.8,1.9,1.1,3.2,1.1c1.7,0,2.8-0.5,3.4-1.5c0.6-1,0.9-2,1-3h9
			c0,3.9-1.2,7.1-3.6,9.5c-1.2,1.2-2.6,2.2-4.2,2.9c-1.6,0.7-3.5,1.1-5.5,1.1c-2.8,0-5.2-0.6-7.2-1.8c-2-1.2-3.5-2.7-4.5-4.7
			c-0.6-1.2-1.1-2.5-1.3-4c-0.2-1.5-0.4-3.2-0.4-5V33.4c0-1.8,0.1-3.5,0.4-5c0.2-1.5,0.7-2.9,1.3-4c1.1-1.9,2.6-3.5,4.5-4.7
			c2-1.2,4.4-1.8,7.2-1.8c2.1,0,3.9,0.4,5.6,1.1c1.7,0.7,3.1,1.7,4.3,2.9c2.3,2.6,3.5,6,3.5,9.9V44.1z M36.4,37.1h8.8V32
			c0-1.7-0.4-3-1.2-3.8s-1.9-1.3-3.2-1.3c-1.4,0-2.4,0.4-3.2,1.3s-1.2,2.1-1.2,3.8V37.1z"/>
		<path d="M60.8,63.1V18.4h9v4.8c1.8-1.6,3.6-2.9,5.4-3.9c1.8-0.9,3.9-1.4,6.5-1.4v9.5c-0.9-0.4-1.8-0.5-2.7-0.5c-0.9,0-2,0.2-3,0.5
			c-1.1,0.3-2.1,0.9-2.9,1.6c-0.9,0.8-1.7,1.8-2.3,3c-0.6,1.2-0.9,2.8-0.9,4.6v26.5H60.8z"/>
		<path d="M85.2,63.1V18.4h9v4.3h0.2c0.9-1.4,2.1-2.6,3.4-3.5c1.3-0.9,3-1.4,5.1-1.4c1.9,0,3.5,0.5,4.8,1.4c1.3,0.9,2.3,2,3.2,3.1
			c1.1-1.2,2.3-2.3,3.7-3.2c1.3-0.9,3.2-1.3,5.6-1.3c1.1,0,2.3,0.2,3.4,0.6c1.2,0.4,2.2,1,3.2,1.9c0.9,0.9,1.7,2,2.3,3.4
			c0.6,1.4,0.9,3.1,0.9,5.1v34.2h-9V32.2c0-1.6-0.4-2.9-1.1-3.9c-0.8-0.9-1.8-1.4-3.3-1.4c-1.7,0-2.9,0.5-3.5,1.6
			c-0.6,1.1-1,2.6-1,4.6v30h-9V32.2c0-1.6-0.4-2.9-1.1-3.9c-0.8-0.9-1.8-1.4-3.3-1.4c-1.7,0-2.9,0.5-3.5,1.6c-0.6,1.1-1,2.6-1,4.6
			v30H85.2z"/>
		<path d="M153.6,30.9c-0.1-1.5-0.5-2.7-1.5-3.4c-0.9-0.8-2-1.1-3.1-1.1c-1.4,0-2.5,0.5-3.3,1.4c-0.8,0.9-1.1,2-1.1,3.1
			c0,0.8,0.2,1.6,0.6,2.4c0.4,0.8,1.5,1.5,3.2,2.2l5.3,2.1c3.3,1.3,5.6,3.1,6.9,5.3c1.3,2.2,1.9,4.7,1.9,7.3c0,1.9-0.3,3.6-1,5.2
			c-0.7,1.6-1.6,3-2.8,4.3c-1.2,1.2-2.6,2.2-4.2,2.9c-1.6,0.7-3.4,1.1-5.4,1.1c-3.6,0-6.7-1.1-9.2-3.4c-1.2-1.1-2.2-2.5-3-4.2
			c-0.8-1.7-1.2-3.6-1.2-5.9h8.4c0.2,1.2,0.6,2.4,1.3,3.4c0.7,1.1,1.9,1.6,3.6,1.6c1.3,0,2.4-0.4,3.5-1.3c1-0.8,1.5-2,1.5-3.6
			c0-1.2-0.3-2.3-1-3.2c-0.6-0.9-1.8-1.6-3.5-2.3l-4.3-1.6c-2.8-1.1-5-2.6-6.6-4.7c-1.6-2.1-2.4-4.6-2.4-7.6c0-1.9,0.4-3.6,1.1-5.2
			c0.7-1.6,1.7-3,2.9-4.2c1.2-1.2,2.6-2.1,4.1-2.7s3.3-0.9,5.1-0.9c1.8,0,3.5,0.3,5.1,1c1.6,0.6,2.9,1.6,4,2.7
			c1.1,1.2,2,2.6,2.6,4.2c0.6,1.6,1,3.3,1,5.1H153.6z"/>
	</g>
</g>
</svg>
