<?xml version="1.0" encoding="utf-8"?>
<!-- Generator: Adobe Illustrator 25.4.1, SVG Export Plug-In . SVG Version: 6.00 Build 0)  -->
<svg version="1.1" id="レイヤー_1" xmlns="http://www.w3.org/2000/svg" xmlns:xlink="http://www.w3.org/1999/xlink" x="0px"
	 y="0px" viewBox="0 0 98 65" style="enable-background:new 0 0 98 65;" xml:space="preserve">
<style type="text/css">
	.st0{fill:#040000;}
</style>
<g>
	<g>
		<path class="st0" d="M0.1,63.3V0.6h26.8v8.4H9.1v19h15.5v8.4H9.1v26.8H0.1z"/>
		<path class="st0" d="M24.2,63.3l14-62.7h7.5l14,62.7h-9l-2.6-13.5H35.8l-2.6,13.5H24.2z M46.4,41.4L42,18.7h-0.2l-4.4,22.7H46.4z"
			/>
		<path class="st0" d="M63.6,15.4c0-2.5,0.4-4.8,1.3-6.7c0.9-1.9,2.1-3.5,3.5-4.8c1.4-1.2,3-2.2,4.8-2.8c1.8-0.6,3.6-1,5.4-1
			c1.8,0,3.6,0.3,5.4,1c1.8,0.6,3.4,1.6,4.9,2.8c1.4,1.3,2.6,2.9,3.4,4.8c0.9,1.9,1.3,4.2,1.3,6.7v33.1c0,2.5-0.4,4.6-1.3,6.4
			l5.5,4.5l-4.6,5.5L88,60.6c-2.7,2.2-5.8,3.3-9.4,3.3c-1.8,0-3.6-0.3-5.4-1c-1.8-0.6-3.4-1.6-4.8-2.9c-1.5-1.2-2.6-2.8-3.5-4.7
			c-0.9-1.9-1.3-4.1-1.3-6.8V15.4z M72.5,48.5c0,2.2,0.6,3.8,1.8,4.8c1.2,1,2.6,1.5,4.3,1.5c0.8,0,1.5-0.1,1.9-0.4l-4-3.3l4.6-5.5
			l3.6,2.9v-0.2V15.4c0-2.2-0.6-3.8-1.8-4.8c-1.2-1-2.6-1.5-4.3-1.5c-1.6,0-3.1,0.5-4.3,1.5c-1.2,1-1.8,2.6-1.8,4.8V48.5z"/>
	</g>
</g>
</svg>
