<?xml version="1.0" encoding="utf-8"?>
<!-- Generator: Adobe Illustrator 25.4.1, SVG Export Plug-In . SVG Version: 6.00 Build 0)  -->
<svg version="1.1" id="レイヤー_1" xmlns="http://www.w3.org/2000/svg" xmlns:xlink="http://www.w3.org/1999/xlink" x="0px"
	 y="0px" viewBox="0 0 387 64" style="enable-background:new 0 0 387 64;" xml:space="preserve">
<style type="text/css">
	.st0{fill:#040000;}
</style>
<g>
	<g>
		<path class="st0" d="M0.5,63.1l14-62.7h7.5l14,62.7h-9l-2.6-13.5H12.1L9.5,63.1H0.5z M22.7,41.2l-4.4-22.7h-0.2l-4.4,22.7H22.7z"
			/>
		<path class="st0" d="M56.1,30.9c-0.1-1.5-0.5-2.7-1.5-3.4c-0.9-0.8-2-1.1-3.1-1.1c-1.4,0-2.5,0.5-3.3,1.4c-0.8,0.9-1.1,2-1.1,3.1
			c0,0.8,0.2,1.6,0.6,2.4c0.4,0.8,1.5,1.5,3.2,2.2l5.3,2.1c3.3,1.3,5.6,3.1,6.9,5.3c1.3,2.2,1.9,4.7,1.9,7.3c0,1.9-0.3,3.6-1,5.2
			c-0.7,1.6-1.6,3-2.8,4.3c-1.2,1.2-2.6,2.2-4.2,2.9c-1.6,0.7-3.4,1.1-5.4,1.1c-3.6,0-6.7-1.1-9.2-3.4c-1.2-1.1-2.2-2.5-3-4.2
			c-0.8-1.7-1.2-3.6-1.2-5.9h8.4c0.2,1.2,0.6,2.4,1.3,3.4c0.7,1.1,1.9,1.6,3.6,1.6c1.3,0,2.4-0.4,3.5-1.3c1-0.8,1.5-2,1.5-3.6
			c0-1.2-0.3-2.3-1-3.2c-0.6-0.9-1.8-1.6-3.5-2.3l-4.3-1.6c-2.8-1.1-5-2.6-6.6-4.7c-1.6-2.1-2.4-4.6-2.4-7.6c0-1.9,0.4-3.6,1.1-5.2
			c0.7-1.6,1.7-3,2.9-4.2c1.2-1.2,2.6-2.1,4.1-2.7s3.3-0.9,5.1-0.9c1.8,0,3.5,0.3,5.1,1c1.6,0.6,2.9,1.6,4,2.7
			c1.1,1.2,2,2.6,2.6,4.2c0.6,1.6,1,3.3,1,5.1H56.1z"/>
		<path class="st0" d="M70.8,18.4V4.9h9v13.6h5.5v7h-5.5v24.7c0,1.1,0.1,1.9,0.3,2.5c0.2,0.6,0.5,1,1,1.3c0.5,0.3,1,0.5,1.7,0.5
			c0.7,0.1,1.5,0.1,2.5,0.1v8.4h-3.7c-2.1,0-3.8-0.3-5.1-1c-1.4-0.6-2.5-1.5-3.3-2.5c-0.8-1-1.4-2.1-1.8-3.4
			c-0.4-1.3-0.6-2.5-0.6-3.7V25.5h-4.5v-7H70.8z"/>
		<path class="st0" d="M105.7,63.1v-4.6h-0.2c-1.2,1.6-2.4,2.9-3.6,3.8c-1.2,0.9-2.9,1.3-5.1,1.3c-1.1,0-2.1-0.2-3.2-0.5
			c-1.1-0.3-2.1-0.9-3.1-1.8c-1-0.8-1.8-2-2.4-3.6c-0.6-1.6-0.9-3.6-0.9-6c0-2.5,0.2-4.7,0.6-6.6c0.4-1.9,1.2-3.5,2.3-4.8
			c1.1-1.2,2.5-2.2,4.3-2.8c1.8-0.6,4.1-0.9,7-0.9c0.3,0,0.6,0,1,0s0.7,0,1,0.1c0.3,0.1,0.6,0.1,1.1,0.1c0.4,0,0.9,0,1.3,0.1v-4.7
			c0-1.5-0.3-2.8-1-3.8c-0.6-1-1.8-1.5-3.5-1.5c-1.2,0-2.2,0.4-3.2,1.1c-1,0.8-1.6,1.9-1.9,3.3h-8.7c0.2-4,1.6-7.2,4-9.7
			c1.2-1.2,2.6-2.1,4.2-2.8c1.6-0.7,3.5-1,5.5-1c1.9,0,3.6,0.3,5.3,0.9c1.6,0.6,3.1,1.5,4.3,2.6c1.2,1.2,2.1,2.6,2.8,4.4
			c0.7,1.8,1.1,3.8,1.1,6.2v31.1H105.7z M105.7,43.9c-1-0.2-1.8-0.3-2.5-0.3c-1.9,0-3.6,0.5-5,1.4c-1.4,0.9-2.1,2.6-2.1,5
			c0,1.7,0.4,3.1,1.2,4.1c0.8,1.1,2,1.6,3.4,1.6c1.5,0,2.7-0.5,3.6-1.5c0.9-1,1.3-2.4,1.3-4.2V43.9z"/>
		<path class="st0" d="M121.3,63.1V18.4h9v4.8c1.8-1.6,3.6-2.9,5.4-3.9c1.8-0.9,3.9-1.4,6.5-1.4v9.5c-0.9-0.4-1.8-0.5-2.7-0.5
			c-0.9,0-2,0.2-3,0.5c-1.1,0.3-2.1,0.9-2.9,1.6c-0.9,0.8-1.7,1.8-2.3,3c-0.6,1.2-0.9,2.8-0.9,4.6v26.5H121.3z"/>
		<path class="st0" d="M162.3,63.1V0.4h8.6l13.6,37.8h0.2V0.4h9v62.7h-8.4l-13.7-37.7h-0.2v37.7H162.3z"/>
		<path class="st0" d="M227.2,44.1h-17.8v6.1c0,1.4,0.4,2.5,1.2,3.3c0.8,0.8,1.9,1.1,3.2,1.1c1.7,0,2.8-0.5,3.4-1.5c0.6-1,0.9-2,1-3
			h9c0,3.9-1.2,7.1-3.6,9.5c-1.2,1.2-2.6,2.2-4.2,2.9c-1.6,0.7-3.5,1.1-5.5,1.1c-2.8,0-5.2-0.6-7.2-1.8c-2-1.2-3.5-2.7-4.5-4.7
			c-0.6-1.2-1.1-2.5-1.3-4c-0.2-1.5-0.4-3.2-0.4-5V33.4c0-1.8,0.1-3.5,0.4-5c0.2-1.5,0.7-2.9,1.3-4c1.1-1.9,2.6-3.5,4.5-4.7
			c2-1.2,4.4-1.8,7.2-1.8c2.1,0,3.9,0.4,5.6,1.1c1.7,0.7,3.1,1.7,4.3,2.9c2.3,2.6,3.5,6,3.5,9.9V44.1z M209.4,37.1h8.8V32
			c0-1.7-0.4-3-1.2-3.8s-1.9-1.3-3.2-1.3c-1.4,0-2.4,0.4-3.2,1.3s-1.2,2.1-1.2,3.8V37.1z"/>
		<path class="st0" d="M233.8,18.4V4.9h9v13.6h5.5v7h-5.5v24.7c0,1.1,0.1,1.9,0.3,2.5c0.2,0.6,0.5,1,1,1.3c0.5,0.3,1,0.5,1.7,0.5
			c0.7,0.1,1.5,0.1,2.5,0.1v8.4h-3.7c-2.1,0-3.8-0.3-5.1-1c-1.4-0.6-2.5-1.5-3.3-2.5c-0.8-1-1.4-2.1-1.8-3.4
			c-0.4-1.3-0.6-2.5-0.6-3.7V25.5h-4.5v-7H233.8z"/>
		<path class="st0" d="M295.1,18.4l-10.6,44.6h-7.9l-4.9-26.5h-0.2l-4.9,26.5h-7.9l-10.6-44.6h9.5l5.5,27.7h0.2l5-27.7h7l4.8,27.7
			h0.2l5.4-27.7H295.1z"/>
		<path class="st0" d="M297.6,33.4c0-1.8,0.1-3.5,0.4-5c0.2-1.5,0.7-2.9,1.3-4c1.1-1.9,2.6-3.5,4.5-4.7c2-1.2,4.4-1.8,7.2-1.8
			c2.8,0,5.2,0.6,7.2,1.8c2,1.2,3.5,2.7,4.5,4.7c0.6,1.2,1.1,2.5,1.3,4c0.2,1.5,0.4,3.2,0.4,5v14.7c0,1.8-0.1,3.5-0.4,5
			c-0.2,1.5-0.7,2.9-1.3,4c-1.1,1.9-2.6,3.5-4.5,4.7c-2,1.2-4.4,1.8-7.2,1.8c-2.8,0-5.2-0.6-7.2-1.8c-2-1.2-3.5-2.7-4.5-4.7
			c-0.6-1.2-1.1-2.5-1.3-4c-0.2-1.5-0.4-3.2-0.4-5V33.4z M306.5,49.5c0,1.7,0.4,3,1.2,3.8s1.9,1.3,3.2,1.3c1.3,0,2.4-0.4,3.2-1.3
			s1.2-2.1,1.2-3.8V32c0-1.7-0.4-3-1.2-3.8s-1.9-1.3-3.2-1.3c-1.4,0-2.4,0.4-3.2,1.3s-1.2,2.1-1.2,3.8V49.5z"/>
		<path class="st0" d="M330.9,63.1V18.4h9v4.8c1.8-1.6,3.6-2.9,5.4-3.9c1.8-0.9,3.9-1.4,6.5-1.4v9.5c-0.9-0.4-1.8-0.5-2.7-0.5
			c-0.9,0-2,0.2-3,0.5c-1.1,0.3-2.1,0.9-2.9,1.6c-0.9,0.8-1.7,1.8-2.3,3c-0.6,1.2-0.9,2.8-0.9,4.6v26.5H330.9z"/>
		<path class="st0" d="M355.4,63.1V0.4h9v37.5h0.2l10.8-19.4h9l-10.6,18.1l12.8,26.5h-9.8l-8.1-19.3l-4.3,6.8v12.5H355.4z"/>
	</g>
</g>
</svg>
