<?xml version="1.0" encoding="utf-8"?>
<!-- Generator: Adobe Illustrator 25.4.1, SVG Export Plug-In . SVG Version: 6.00 Build 0)  -->
<svg version="1.1" id="レイヤー_1" xmlns="http://www.w3.org/2000/svg" xmlns:xlink="http://www.w3.org/1999/xlink" x="0px"
	 y="0px" viewBox="0 0 138 64" style="enable-background:new 0 0 138 64;" xml:space="preserve">
<style type="text/css">
	.st0{fill:#040000;}
</style>
<g>
	<g>
		<g>
			<g>
				<path class="st0" d="M10.6,63.1V8.9H0.2V0.4H30v8.4H19.6v54.2H10.6z"/>
				<path class="st0" d="M53.9,44.1H36.1v6.1c0,1.4,0.4,2.5,1.2,3.3c0.8,0.8,1.9,1.1,3.2,1.1c1.7,0,2.8-0.5,3.4-1.5c0.6-1,0.9-2,1-3
					h9c0,3.9-1.2,7.1-3.6,9.5c-1.2,1.2-2.6,2.2-4.2,2.9c-1.6,0.7-3.5,1.1-5.5,1.1c-2.8,0-5.2-0.6-7.2-1.8c-2-1.2-3.5-2.7-4.5-4.7
					c-0.6-1.2-1.1-2.5-1.3-4c-0.2-1.5-0.4-3.2-0.4-5V33.4c0-1.8,0.1-3.5,0.4-5c0.2-1.5,0.7-2.9,1.3-4c1.1-1.9,2.6-3.5,4.5-4.7
					c2-1.2,4.4-1.8,7.2-1.8c2.1,0,3.9,0.4,5.6,1.1c1.7,0.7,3.1,1.7,4.3,2.9c2.3,2.6,3.5,6,3.5,9.9V44.1z M36.1,37.1h8.8V32
					c0-1.7-0.4-3-1.2-3.8s-1.9-1.3-3.2-1.3c-1.4,0-2.4,0.4-3.2,1.3s-1.2,2.1-1.2,3.8V37.1z"/>
				<path class="st0" d="M77.5,63.1v-4.6h-0.2c-1.2,1.6-2.4,2.9-3.6,3.8c-1.2,0.9-2.9,1.3-5.1,1.3c-1.1,0-2.1-0.2-3.2-0.5
					c-1.1-0.3-2.1-0.9-3.1-1.8c-1-0.8-1.8-2-2.4-3.6c-0.6-1.6-0.9-3.6-0.9-6c0-2.5,0.2-4.7,0.6-6.6c0.4-1.9,1.2-3.5,2.3-4.8
					c1.1-1.2,2.5-2.2,4.3-2.8c1.8-0.6,4.1-0.9,7-0.9c0.3,0,0.6,0,1,0s0.7,0,1,0.1c0.3,0.1,0.6,0.1,1.1,0.1c0.4,0,0.9,0,1.3,0.1v-4.7
					c0-1.5-0.3-2.8-1-3.8c-0.6-1-1.8-1.5-3.5-1.5c-1.2,0-2.2,0.4-3.2,1.1c-1,0.8-1.6,1.9-1.9,3.3h-8.7c0.2-4,1.6-7.2,4-9.7
					c1.2-1.2,2.6-2.1,4.2-2.8c1.6-0.7,3.5-1,5.5-1c1.9,0,3.6,0.3,5.3,0.9c1.6,0.6,3.1,1.5,4.3,2.6c1.2,1.2,2.1,2.6,2.8,4.4
					c0.7,1.8,1.1,3.8,1.1,6.2v31.1H77.5z M77.5,43.9c-1-0.2-1.8-0.3-2.5-0.3c-1.9,0-3.6,0.5-5,1.4c-1.4,0.9-2.1,2.6-2.1,5
					c0,1.7,0.4,3.1,1.2,4.1c0.8,1.1,2,1.6,3.4,1.6c1.5,0,2.7-0.5,3.6-1.5c0.9-1,1.3-2.4,1.3-4.2V43.9z"/>
				<path class="st0" d="M93.1,63.1V18.4h9v4.3h0.2c0.9-1.4,2.1-2.6,3.4-3.5c1.3-0.9,3-1.4,5.1-1.4c1.9,0,3.5,0.5,4.8,1.4
					c1.3,0.9,2.3,2,3.2,3.1c1.1-1.2,2.3-2.3,3.7-3.2c1.3-0.9,3.2-1.3,5.6-1.3c1.1,0,2.3,0.2,3.4,0.6c1.2,0.4,2.2,1,3.2,1.9
					c0.9,0.9,1.7,2,2.3,3.4c0.6,1.4,0.9,3.1,0.9,5.1v34.2h-9V32.2c0-1.6-0.4-2.9-1.1-3.9c-0.8-0.9-1.8-1.4-3.3-1.4
					c-1.7,0-2.9,0.5-3.5,1.6c-0.6,1.1-1,2.6-1,4.6v30h-9V32.2c0-1.6-0.4-2.9-1.1-3.9c-0.8-0.9-1.8-1.4-3.3-1.4
					c-1.7,0-2.9,0.5-3.5,1.6c-0.6,1.1-1,2.6-1,4.6v30H93.1z"/>
			</g>
		</g>
	</g>
</g>
</svg>
