<?xml version="1.0" encoding="utf-8"?>
<!-- Generator: Adobe Illustrator 25.4.1, SVG Export Plug-In . SVG Version: 6.00 Build 0)  -->
<svg version="1.1" id="レイヤー_1" xmlns="http://www.w3.org/2000/svg" xmlns:xlink="http://www.w3.org/1999/xlink" x="0px"
	 y="0px" viewBox="0 0 245 81" style="enable-background:new 0 0 245 81;" xml:space="preserve">
<style type="text/css">
	.st0{fill:#FFFFFF;}
</style>
<g>
	<g>
		<g>
			<path class="st0" d="M0.2,62.8V0.2h14.4c10.6,0,15.8,6.1,15.8,18.4c0,3.7-0.6,6.8-1.7,9.4c-1.1,2.6-3.2,4.7-6,6.2l9.7,28.6h-9.5
				l-8.4-26.8H9.2v26.8H0.2z M9.2,8.6v19.5h5.1c1.6,0,2.8-0.2,3.8-0.7c0.9-0.4,1.7-1.1,2.2-1.9c0.5-0.8,0.8-1.8,1-3
				c0.2-1.2,0.3-2.6,0.3-4.2s-0.1-3-0.3-4.2c-0.2-1.2-0.5-2.2-1.1-3.1c-1.1-1.6-3.2-2.5-6.3-2.5H9.2z"/>
			<path class="st0" d="M36.3,33.2c0-1.8,0.1-3.5,0.4-5c0.2-1.5,0.7-2.9,1.3-4c1.1-1.9,2.6-3.5,4.5-4.7c2-1.2,4.4-1.8,7.2-1.8
				c2.8,0,5.2,0.6,7.2,1.8c2,1.2,3.5,2.7,4.5,4.7c0.6,1.2,1.1,2.5,1.3,4c0.2,1.5,0.4,3.2,0.4,5v14.7c0,1.8-0.1,3.5-0.4,5
				c-0.2,1.5-0.7,2.9-1.3,4c-1.1,1.9-2.6,3.5-4.5,4.7c-2,1.2-4.4,1.8-7.2,1.8c-2.8,0-5.2-0.6-7.2-1.8c-2-1.2-3.5-2.7-4.5-4.7
				c-0.6-1.2-1.1-2.5-1.3-4c-0.2-1.5-0.4-3.2-0.4-5V33.2z M45.3,49.3c0,1.7,0.4,3,1.2,3.8s1.9,1.3,3.2,1.3c1.3,0,2.4-0.4,3.2-1.3
				s1.2-2.1,1.2-3.8V31.7c0-1.7-0.4-3-1.2-3.8s-1.9-1.3-3.2-1.3c-1.4,0-2.4,0.4-3.2,1.3s-1.2,2.1-1.2,3.8V49.3z"/>
			<path class="st0" d="M86.7,62.8v-4.6h-0.2c-1.2,1.6-2.4,2.9-3.6,3.8c-1.2,0.9-2.9,1.3-5.1,1.3c-1.1,0-2.1-0.2-3.2-0.5
				c-1.1-0.3-2.1-0.9-3.1-1.8c-1-0.8-1.8-2-2.4-3.6c-0.6-1.6-0.9-3.6-0.9-6c0-2.5,0.2-4.7,0.6-6.6c0.4-1.9,1.2-3.5,2.3-4.8
				c1.1-1.2,2.5-2.2,4.3-2.8c1.8-0.6,4.1-0.9,7-0.9c0.3,0,0.6,0,1,0s0.7,0,1,0.1c0.3,0.1,0.6,0.1,1.1,0.1c0.4,0,0.9,0,1.3,0.1v-4.7
				c0-1.5-0.3-2.8-1-3.8c-0.6-1-1.8-1.5-3.5-1.5C81,26.6,80,27,79,27.8c-1,0.8-1.6,1.9-1.9,3.3h-8.7c0.2-4,1.6-7.2,4-9.7
				c1.2-1.2,2.6-2.1,4.2-2.8c1.6-0.7,3.5-1,5.5-1c1.9,0,3.6,0.3,5.3,0.9c1.6,0.6,3.1,1.5,4.3,2.6c1.2,1.2,2.1,2.6,2.8,4.4
				c0.7,1.8,1.1,3.8,1.1,6.2v31.1H86.7z M86.7,43.6c-1-0.2-1.8-0.3-2.5-0.3c-1.9,0-3.6,0.5-5,1.4c-1.4,0.9-2.1,2.6-2.1,5
				c0,1.7,0.4,3.1,1.2,4.1c0.8,1.1,2,1.6,3.4,1.6c1.5,0,2.7-0.5,3.6-1.5c0.9-1,1.3-2.4,1.3-4.2V43.6z"/>
			<path class="st0" d="M120.1,62.8v-4c-0.6,0.6-1.1,1.2-1.7,1.8c-0.5,0.6-1.1,1-1.8,1.5c-0.6,0.4-1.4,0.7-2.2,1
				c-0.8,0.2-1.8,0.4-2.9,0.4c-3.8,0-6.4-1.4-7.8-4.2c-0.5-1-0.9-2.2-1.1-3.7c-0.2-1.5-0.4-3.4-0.4-5.9v-17c0-3.2,0.1-5.6,0.3-7.1
				c0.4-2.9,1.7-5.1,4.1-6.6c1.1-0.8,2.8-1.1,5-1.1c1.8,0,3.3,0.4,4.7,1.2c1.4,0.8,2.6,1.9,3.6,3.4h0.2V0.2h9v62.7H120.1z
				 M111.2,48.3c0,1.8,0.4,3.3,1.1,4.4c0.7,1.1,1.8,1.7,3.3,1.7c1.3,0,2.4-0.5,3.3-1.5c0.8-1,1.2-2.4,1.2-4V31.5
				c0-1.4-0.4-2.6-1.3-3.5c-0.9-0.9-1.9-1.4-3.2-1.4c-1.7,0-2.9,0.5-3.5,1.6c-0.6,1.1-0.9,2.3-0.9,3.7V48.3z"/>
			<path class="st0" d="M137,62.8V0.2h8.6l11.5,33.2h0.2l11.4-33.2h8.7v62.7h-9V24.7h-0.2l-8.9,26.9H155l-8.8-26.9H146v38.1H137z"/>
			<path class="st0" d="M202.4,62.8v-4.6h-0.2c-1.2,1.6-2.4,2.9-3.6,3.8c-1.2,0.9-2.9,1.3-5.1,1.3c-1.1,0-2.1-0.2-3.2-0.5
				c-1.1-0.3-2.1-0.9-3.1-1.8c-1-0.8-1.8-2-2.4-3.6c-0.6-1.6-0.9-3.6-0.9-6c0-2.5,0.2-4.7,0.6-6.6c0.4-1.9,1.2-3.5,2.3-4.8
				c1.1-1.2,2.5-2.2,4.3-2.8c1.8-0.6,4.1-0.9,7-0.9c0.3,0,0.6,0,1,0s0.7,0,1,0.1c0.3,0.1,0.6,0.1,1.1,0.1c0.4,0,0.9,0,1.3,0.1v-4.7
				c0-1.5-0.3-2.8-1-3.8c-0.6-1-1.8-1.5-3.5-1.5c-1.2,0-2.2,0.4-3.2,1.1c-1,0.8-1.6,1.9-1.9,3.3h-8.7c0.2-4,1.6-7.2,4-9.7
				c1.2-1.2,2.6-2.1,4.2-2.8c1.6-0.7,3.5-1,5.5-1c1.9,0,3.6,0.3,5.3,0.9c1.6,0.6,3.1,1.5,4.3,2.6c1.2,1.2,2.1,2.6,2.8,4.4
				c0.7,1.8,1.1,3.8,1.1,6.2v31.1H202.4z M202.4,43.6c-1-0.2-1.8-0.3-2.5-0.3c-1.9,0-3.6,0.5-5,1.4c-1.4,0.9-2.1,2.6-2.1,5
				c0,1.7,0.4,3.1,1.2,4.1c0.8,1.1,2,1.6,3.4,1.6c1.5,0,2.7-0.5,3.6-1.5c0.9-1,1.3-2.4,1.3-4.2V43.6z"/>
			<path class="st0" d="M218,80.8V18.2h9v4c1.1-1.3,2.3-2.4,3.4-3.3c1.2-0.9,2.9-1.3,5.1-1.3c3.7,0,6.3,1.4,7.8,4.2
				c0.5,1,0.9,2.2,1.1,3.7c0.2,1.5,0.4,3.4,0.4,5.9v17c0,3.3-0.1,5.7-0.3,7.1c-0.4,2.9-1.7,5.1-4,6.6c-1.2,0.8-2.9,1.1-5.1,1.1
				c-1.8,0-3.3-0.4-4.7-1.2c-1.4-0.8-2.6-1.9-3.6-3.4H227v22.1H218z M235.8,32.7c0-1.8-0.4-3.3-1.1-4.4c-0.7-1.1-1.8-1.7-3.3-1.7
				c-1.4,0-2.4,0.5-3.3,1.5c-0.8,1-1.2,2.4-1.2,4v17.3c0,1.4,0.4,2.6,1.3,3.5c0.8,0.9,1.9,1.4,3.2,1.4c1.7,0,2.9-0.5,3.5-1.6
				c0.6-1.1,0.9-2.3,0.9-3.7V32.7z"/>
		</g>
	</g>
</g>
</svg>
