<?xml version="1.0" encoding="utf-8"?>
<!-- Generator: Adobe Illustrator 25.4.1, SVG Export Plug-In . SVG Version: 6.00 Build 0)  -->
<svg version="1.1" id="レイヤー_1" xmlns="http://www.w3.org/2000/svg" xmlns:xlink="http://www.w3.org/1999/xlink" x="0px"
	 y="0px" viewBox="0 0 462 64" style="enable-background:new 0 0 462 64;" xml:space="preserve">
<style type="text/css">
	.st0{fill:#FFFFFF;}
</style>
<g>
	<g>
		<path class="st0" d="M12.7,63.1V36.6L0.4,0.4h9.5l7.2,24.9h0.2l7.2-24.9H34L21.7,36.6v26.5H12.7z"/>
		<path class="st0" d="M32.3,33.4c0-1.8,0.1-3.5,0.4-5c0.2-1.5,0.7-2.9,1.3-4c1.1-1.9,2.6-3.5,4.5-4.7c2-1.2,4.4-1.8,7.2-1.8
			c2.8,0,5.2,0.6,7.2,1.8c2,1.2,3.5,2.7,4.5,4.7c0.6,1.2,1.1,2.5,1.3,4c0.2,1.5,0.4,3.2,0.4,5v14.7c0,1.8-0.1,3.5-0.4,5
			c-0.2,1.5-0.7,2.9-1.3,4c-1.1,1.9-2.6,3.5-4.5,4.7c-2,1.2-4.4,1.8-7.2,1.8c-2.8,0-5.2-0.6-7.2-1.8c-2-1.2-3.5-2.7-4.5-4.7
			c-0.6-1.2-1.1-2.5-1.3-4c-0.2-1.5-0.4-3.2-0.4-5V33.4z M41.3,49.5c0,1.7,0.4,3,1.2,3.8s1.9,1.3,3.2,1.3c1.3,0,2.4-0.4,3.2-1.3
			s1.2-2.1,1.2-3.8V32c0-1.7-0.4-3-1.2-3.8s-1.9-1.3-3.2-1.3c-1.4,0-2.4,0.4-3.2,1.3s-1.2,2.1-1.2,3.8V49.5z"/>
		<path class="st0" d="M82,30.9c-0.1-1.5-0.5-2.7-1.5-3.4c-0.9-0.8-2-1.1-3.1-1.1c-1.4,0-2.5,0.5-3.3,1.4c-0.8,0.9-1.1,2-1.1,3.1
			c0,0.8,0.2,1.6,0.6,2.4c0.4,0.8,1.5,1.5,3.2,2.2l5.3,2.1c3.3,1.3,5.6,3.1,6.9,5.3c1.3,2.2,1.9,4.7,1.9,7.3c0,1.9-0.3,3.6-1,5.2
			c-0.7,1.6-1.6,3-2.8,4.3c-1.2,1.2-2.6,2.2-4.2,2.9c-1.6,0.7-3.4,1.1-5.4,1.1c-3.6,0-6.7-1.1-9.2-3.4c-1.2-1.1-2.2-2.5-3-4.2
			c-0.8-1.7-1.2-3.6-1.2-5.9h8.4c0.2,1.2,0.6,2.4,1.3,3.4c0.7,1.1,1.9,1.6,3.6,1.6c1.3,0,2.4-0.4,3.5-1.3c1-0.8,1.5-2,1.5-3.6
			c0-1.2-0.3-2.3-1-3.2c-0.6-0.9-1.8-1.6-3.5-2.3l-4.3-1.6c-2.8-1.1-5-2.6-6.6-4.7c-1.6-2.1-2.4-4.6-2.4-7.6c0-1.9,0.4-3.6,1.1-5.2
			c0.7-1.6,1.7-3,2.9-4.2c1.2-1.2,2.6-2.1,4.1-2.7s3.3-0.9,5.1-0.9c1.8,0,3.5,0.3,5.1,1c1.6,0.6,2.9,1.6,4,2.7
			c1.1,1.2,2,2.6,2.6,4.2c0.6,1.6,1,3.3,1,5.1H82z"/>
		<path class="st0" d="M96.7,63.1V0.4h9v22.4h0.2c0.9-1.4,2.1-2.6,3.4-3.5c1.3-0.9,3-1.4,5.1-1.4c1.1,0,2.2,0.2,3.3,0.6
			c1.1,0.4,2.1,1,3,1.9c0.9,0.9,1.6,2,2.1,3.4c0.5,1.4,0.8,3.1,0.8,5.1v34.2h-9V32.2c0-1.6-0.4-2.9-1.1-3.9
			c-0.8-0.9-1.8-1.4-3.3-1.4c-1.7,0-2.9,0.5-3.5,1.6c-0.6,1.1-1,2.6-1,4.6v30H96.7z"/>
		<path class="st0" d="M130.9,9.4v-9h9v9H130.9z M130.9,63.1V18.4h9v44.6H130.9z"/>
		<path class="st0" d="M147.3,18.4V4.9h9v13.6h5.5v7h-5.5v24.7c0,1.1,0.1,1.9,0.3,2.5c0.2,0.6,0.5,1,1,1.3c0.5,0.3,1,0.5,1.7,0.5
			c0.7,0.1,1.5,0.1,2.5,0.1v8.4h-3.7c-2.1,0-3.8-0.3-5.1-1c-1.4-0.6-2.5-1.5-3.3-2.5c-0.8-1-1.4-2.1-1.8-3.4
			c-0.4-1.3-0.6-2.5-0.6-3.7V25.5h-4.5v-7H147.3z"/>
		<path class="st0" d="M182.2,63.1v-4.6H182c-1.2,1.6-2.4,2.9-3.6,3.8c-1.2,0.9-2.9,1.3-5.1,1.3c-1.1,0-2.1-0.2-3.2-0.5
			c-1.1-0.3-2.1-0.9-3.1-1.8c-1-0.8-1.8-2-2.4-3.6c-0.6-1.6-0.9-3.6-0.9-6c0-2.5,0.2-4.7,0.6-6.6c0.4-1.9,1.2-3.5,2.3-4.8
			c1.1-1.2,2.5-2.2,4.3-2.8c1.8-0.6,4.1-0.9,7-0.9c0.3,0,0.6,0,1,0s0.7,0,1,0.1c0.3,0.1,0.6,0.1,1.1,0.1c0.4,0,0.9,0,1.3,0.1v-4.7
			c0-1.5-0.3-2.8-1-3.8c-0.6-1-1.8-1.5-3.5-1.5c-1.2,0-2.2,0.4-3.2,1.1c-1,0.8-1.6,1.9-1.9,3.3h-8.7c0.2-4,1.6-7.2,4-9.7
			c1.2-1.2,2.6-2.1,4.2-2.8c1.6-0.7,3.5-1,5.5-1c1.9,0,3.6,0.3,5.3,0.9c1.6,0.6,3.1,1.5,4.3,2.6c1.2,1.2,2.1,2.6,2.8,4.4
			c0.7,1.8,1.1,3.8,1.1,6.2v31.1H182.2z M182.2,43.9c-1-0.2-1.8-0.3-2.5-0.3c-1.9,0-3.6,0.5-5,1.4c-1.4,0.9-2.1,2.6-2.1,5
			c0,1.7,0.4,3.1,1.2,4.1c0.8,1.1,2,1.6,3.4,1.6c1.5,0,2.7-0.5,3.6-1.5c0.9-1,1.3-2.4,1.3-4.2V43.9z"/>
		<path class="st0" d="M197.8,63.1V0.4h9v37.5h0.2l10.8-19.4h9l-10.6,18.1l12.8,26.5h-9.8l-8.1-19.3l-4.3,6.8v12.5H197.8z"/>
		<path class="st0" d="M249,63.1v-4.6h-0.2c-1.2,1.6-2.4,2.9-3.6,3.8c-1.2,0.9-2.9,1.3-5.1,1.3c-1.1,0-2.1-0.2-3.2-0.5
			c-1.1-0.3-2.1-0.9-3.1-1.8c-1-0.8-1.8-2-2.4-3.6c-0.6-1.6-0.9-3.6-0.9-6c0-2.5,0.2-4.7,0.6-6.6c0.4-1.9,1.2-3.5,2.3-4.8
			c1.1-1.2,2.5-2.2,4.3-2.8c1.8-0.6,4.1-0.9,7-0.9c0.3,0,0.6,0,1,0s0.7,0,1,0.1c0.3,0.1,0.6,0.1,1.1,0.1c0.4,0,0.9,0,1.3,0.1v-4.7
			c0-1.5-0.3-2.8-1-3.8c-0.6-1-1.8-1.5-3.5-1.5c-1.2,0-2.2,0.4-3.2,1.1c-1,0.8-1.6,1.9-1.9,3.3h-8.7c0.2-4,1.6-7.2,4-9.7
			c1.2-1.2,2.6-2.1,4.2-2.8c1.6-0.7,3.5-1,5.5-1c1.9,0,3.6,0.3,5.3,0.9c1.6,0.6,3.1,1.5,4.3,2.6c1.2,1.2,2.1,2.6,2.8,4.4
			c0.7,1.8,1.1,3.8,1.1,6.2v31.1H249z M249,43.9c-1-0.2-1.8-0.3-2.5-0.3c-1.9,0-3.6,0.5-5,1.4c-1.4,0.9-2.1,2.6-2.1,5
			c0,1.7,0.4,3.1,1.2,4.1c0.8,1.1,2,1.6,3.4,1.6c1.5,0,2.7-0.5,3.6-1.5c0.9-1,1.3-2.4,1.3-4.2V43.9z"/>
		<path class="st0" d="M277.4,63.1l14-62.7h7.5l14,62.7h-9l-2.6-13.5H289l-2.6,13.5H277.4z M299.6,41.2l-4.4-22.7H295l-4.4,22.7
			H299.6z"/>
		<path class="st0" d="M316.8,63.1V18.4h9v4.3h0.2c0.9-1.4,2.1-2.6,3.4-3.5c1.3-0.9,3-1.4,5.1-1.4c1.9,0,3.5,0.5,4.8,1.4
			c1.3,0.9,2.3,2,3.2,3.1c1.1-1.2,2.3-2.3,3.7-3.2c1.3-0.9,3.2-1.3,5.6-1.3c1.1,0,2.3,0.2,3.4,0.6c1.2,0.4,2.2,1,3.2,1.9
			c0.9,0.9,1.7,2,2.3,3.4c0.6,1.4,0.9,3.1,0.9,5.1v34.2h-9V32.2c0-1.6-0.4-2.9-1.1-3.9c-0.8-0.9-1.8-1.4-3.3-1.4
			c-1.7,0-2.9,0.5-3.5,1.6c-0.6,1.1-1,2.6-1,4.6v30h-9V32.2c0-1.6-0.4-2.9-1.1-3.9c-0.8-0.9-1.8-1.4-3.3-1.4c-1.7,0-2.9,0.5-3.5,1.6
			c-0.6,1.1-1,2.6-1,4.6v30H316.8z"/>
		<path class="st0" d="M385.8,63.1v-4.6h-0.2c-1.2,1.6-2.4,2.9-3.6,3.8c-1.2,0.9-2.9,1.3-5.1,1.3c-1.1,0-2.1-0.2-3.2-0.5
			c-1.1-0.3-2.1-0.9-3.1-1.8c-1-0.8-1.8-2-2.4-3.6c-0.6-1.6-0.9-3.6-0.9-6c0-2.5,0.2-4.7,0.6-6.6c0.4-1.9,1.2-3.5,2.3-4.8
			c1.1-1.2,2.5-2.2,4.3-2.8c1.8-0.6,4.1-0.9,7-0.9c0.3,0,0.6,0,1,0s0.7,0,1,0.1c0.3,0.1,0.6,0.1,1.1,0.1c0.4,0,0.9,0,1.3,0.1v-4.7
			c0-1.5-0.3-2.8-1-3.8c-0.6-1-1.8-1.5-3.5-1.5c-1.2,0-2.2,0.4-3.2,1.1c-1,0.8-1.6,1.9-1.9,3.3h-8.7c0.2-4,1.6-7.2,4-9.7
			c1.2-1.2,2.6-2.1,4.2-2.8c1.6-0.7,3.5-1,5.5-1c1.9,0,3.6,0.3,5.3,0.9c1.6,0.6,3.1,1.5,4.3,2.6c1.2,1.2,2.1,2.6,2.8,4.4
			c0.7,1.8,1.1,3.8,1.1,6.2v31.1H385.8z M385.8,43.9c-1-0.2-1.8-0.3-2.5-0.3c-1.9,0-3.6,0.5-5,1.4c-1.4,0.9-2.1,2.6-2.1,5
			c0,1.7,0.4,3.1,1.2,4.1c0.8,1.1,2,1.6,3.4,1.6c1.5,0,2.7-0.5,3.6-1.5c0.9-1,1.3-2.4,1.3-4.2V43.9z"/>
		<path class="st0" d="M401.4,63.1V18.4h9v4.3h0.2c0.9-1.4,2.1-2.6,3.4-3.5c1.3-0.9,3-1.4,5.1-1.4c1.1,0,2.2,0.2,3.3,0.6
			c1.1,0.4,2.1,1,3,1.9c0.9,0.9,1.6,2,2.1,3.4c0.5,1.4,0.8,3.1,0.8,5.1v34.2h-9V32.2c0-1.6-0.4-2.9-1.1-3.9
			c-0.8-0.9-1.8-1.4-3.3-1.4c-1.7,0-2.9,0.5-3.5,1.6c-0.6,1.1-1,2.6-1,4.6v30H401.4z"/>
		<path class="st0" d="M434.8,33.4c0-1.8,0.1-3.5,0.4-5c0.2-1.5,0.7-2.9,1.3-4c1.1-1.9,2.6-3.5,4.5-4.7c2-1.2,4.4-1.8,7.2-1.8
			c2.8,0,5.2,0.6,7.2,1.8c2,1.2,3.5,2.7,4.5,4.7c0.6,1.2,1.1,2.5,1.3,4c0.2,1.5,0.4,3.2,0.4,5v14.7c0,1.8-0.1,3.5-0.4,5
			c-0.2,1.5-0.7,2.9-1.3,4c-1.1,1.9-2.6,3.5-4.5,4.7c-2,1.2-4.4,1.8-7.2,1.8c-2.8,0-5.2-0.6-7.2-1.8c-2-1.2-3.5-2.7-4.5-4.7
			c-0.6-1.2-1.1-2.5-1.3-4c-0.2-1.5-0.4-3.2-0.4-5V33.4z M443.8,49.5c0,1.7,0.4,3,1.2,3.8s1.9,1.3,3.2,1.3c1.3,0,2.4-0.4,3.2-1.3
			s1.2-2.1,1.2-3.8V32c0-1.7-0.4-3-1.2-3.8s-1.9-1.3-3.2-1.3c-1.4,0-2.4,0.4-3.2,1.3s-1.2,2.1-1.2,3.8V49.5z"/>
	</g>
</g>
</svg>
