<?xml version="1.0" encoding="utf-8"?>
<!-- Generator: Adobe Illustrator 25.4.1, SVG Export Plug-In . SVG Version: 6.00 Build 0)  -->
<svg version="1.1" id="レイヤー_1" xmlns="http://www.w3.org/2000/svg" xmlns:xlink="http://www.w3.org/1999/xlink" x="0px"
	 y="0px" viewBox="0 0 361 63" style="enable-background:new 0 0 361 63;" xml:space="preserve">
<style type="text/css">
	.st0{fill:#040000;}
</style>
<g>
	<g>
		<path class="st0" d="M10.7,62.8V8.6H0.3V0.2h29.7v8.4H19.7v54.2H10.7z"/>
		<path class="st0" d="M80.6,0.2l-9.3,62.7h-8.4l-6.9-40.7h-0.2L49,62.8h-8.4L31.2,0.2h9.5l4.5,39.8h0.2l7-39.8h6.9l7.3,40.7h0.2
			l4.3-40.7H80.6z"/>
		<path class="st0" d="M86.5,62.8V0.2h9v62.7H86.5z"/>
		<path class="st0" d="M103.8,62.8V0.2h8.6L126,37.9h0.2V0.2h9v62.7h-8.4L113,25.2h-0.2v37.7H103.8z"/>
		<path class="st0" d="M159.6,62.8V0.2h13.5c2.5,0,4.6,0.3,6.5,1c1.9,0.6,3.6,1.8,5.1,3.4c1.5,1.6,2.6,3.6,3.2,5.8
			c0.6,2.2,0.9,5.2,0.9,8.9c0,2.8-0.2,5.2-0.5,7.1c-0.3,1.9-1,3.8-2.1,5.5c-1.2,2.1-2.9,3.7-4.9,4.8c-2.1,1.1-4.8,1.7-8.1,1.7h-4.6
			v24.5H159.6z M168.6,8.6v21.3h4.3c1.8,0,3.2-0.3,4.2-0.8c1-0.5,1.7-1.3,2.2-2.2c0.5-0.9,0.7-2,0.8-3.3c0.1-1.3,0.1-2.7,0.1-4.3
			c0-1.5,0-2.9-0.1-4.2c-0.1-1.3-0.3-2.5-0.8-3.5c-0.5-1-1.2-1.8-2.1-2.3c-0.9-0.5-2.3-0.8-4-0.8H168.6z"/>
		<path class="st0" d="M195.4,62.8V0.2h9v53.7h17.8v9H195.4z"/>
		<path class="st0" d="M223.9,62.8l14-62.7h7.5l14,62.7h-9l-2.6-13.5h-12.2l-2.6,13.5H223.9z M246.1,40.9l-4.4-22.7h-0.2l-4.4,22.7
			H246.1z"/>
		<path class="st0" d="M263.4,62.8V0.2h8.6l13.6,37.8h0.2V0.2h9v62.7h-8.4l-13.7-37.7h-0.2v37.7H263.4z"/>
		<path class="st0" d="M302.9,62.8V0.2h26.8v8.4h-17.8V27h15.5v8.4h-15.5v18.4h17.8v9H302.9z"/>
		<path class="st0" d="M341.3,62.8V8.6h-10.4V0.2h29.7v8.4h-10.4v54.2H341.3z"/>
	</g>
</g>
</svg>
