<?xml version="1.0" encoding="utf-8"?>
<!-- Generator: Adobe Illustrator 25.4.1, SVG Export Plug-In . SVG Version: 6.00 Build 0)  -->
<svg version="1.1" id="レイヤー_1" xmlns="http://www.w3.org/2000/svg" xmlns:xlink="http://www.w3.org/1999/xlink" x="0px"
	 y="0px" viewBox="0 0 49 40" style="enable-background:new 0 0 49 40;" xml:space="preserve">
<style type="text/css">
	.st0{fill:#040000;}
</style>
<path class="st0" d="M48.9,4.9c0,0-3.8,1.7-5.5,1.6c0-0.1-0.1-0.2-0.1-0.3c0.9-0.8,3.8-3.3,4.2-5.2c0,0-3.6,2-5.9,2.5
	C39.6,1.4,36.9,0,33.8,0c-5.7,0-10.4,4.6-10.4,10.4c0,0.7,0.1,1.4,0.2,2.1C20,12.3,11.2,11.1,3,1.7c0,0-4.5,7.9,3,13.8
	c0,0-2.6,0.3-4.2-1.3c0,0-0.7,6.5,7.3,10.1c0,0-2.2,0.7-3.9,0.4c0,0,1.4,5.9,9.2,7c0,0-5.2,4.6-14.4,4c0,0,10.8,7.6,26.5,2.3
	c15.7-5.3,17.8-24.9,17.5-27.8C44.1,10.4,47.3,8.1,48.9,4.9z"/>
</svg>
