<?xml version="1.0" encoding="utf-8"?>
<!-- Generator: Adobe Illustrator 25.4.1, SVG Export Plug-In . SVG Version: 6.00 Build 0)  -->
<svg version="1.1" id="レイヤー_1" xmlns="http://www.w3.org/2000/svg" xmlns:xlink="http://www.w3.org/1999/xlink" x="0px"
	 y="0px" viewBox="0 0 150 23" style="enable-background:new 0 0 150 23;" xml:space="preserve">
<style type="text/css">
	.st0{fill:#040000;}
</style>
<g>
	<path class="st0" d="M13.9,0.1l-2.5,17.1H9.1L7.2,6.1h0L5.3,17.2H3L0.4,0.1H3L4.3,11h0L6.2,0.1h1.9l2,11.1h0l1.2-11.1H13.9z"/>
	<path class="st0" d="M15.3,17.2V0.1h2.4v6.1h0c0.3-0.4,0.6-0.7,0.9-0.9c0.4-0.2,0.8-0.4,1.4-0.4c0.3,0,0.6,0.1,0.9,0.2
		c0.3,0.1,0.6,0.3,0.8,0.5c0.2,0.2,0.4,0.5,0.6,0.9c0.1,0.4,0.2,0.8,0.2,1.4v9.3h-2.4V8.8c0-0.4-0.1-0.8-0.3-1.1
		c-0.2-0.3-0.5-0.4-0.9-0.4c-0.5,0-0.8,0.1-1,0.4c-0.2,0.3-0.3,0.7-0.3,1.2v8.2H15.3z"/>
	<path class="st0" d="M29.3,17.2V16h0c-0.3,0.4-0.6,0.8-1,1c-0.3,0.2-0.8,0.4-1.4,0.4c-0.3,0-0.6,0-0.9-0.1
		c-0.3-0.1-0.6-0.3-0.9-0.5c-0.3-0.2-0.5-0.5-0.7-1c-0.2-0.4-0.3-1-0.3-1.6c0-0.7,0.1-1.3,0.2-1.8c0.1-0.5,0.3-1,0.6-1.3
		c0.3-0.3,0.7-0.6,1.2-0.8s1.1-0.3,1.9-0.3c0.1,0,0.2,0,0.3,0s0.2,0,0.3,0c0.1,0,0.2,0,0.3,0s0.2,0,0.4,0V8.8c0-0.4-0.1-0.8-0.3-1
		c-0.2-0.3-0.5-0.4-1-0.4c-0.3,0-0.6,0.1-0.9,0.3s-0.4,0.5-0.5,0.9h-2.4c0.1-1.1,0.4-2,1.1-2.6c0.3-0.3,0.7-0.6,1.2-0.8
		C27,5,27.5,4.9,28,4.9c0.5,0,1,0.1,1.4,0.2c0.4,0.2,0.8,0.4,1.2,0.7c0.3,0.3,0.6,0.7,0.8,1.2c0.2,0.5,0.3,1,0.3,1.7v8.5H29.3z
		 M29.3,12c-0.3,0-0.5-0.1-0.7-0.1c-0.5,0-1,0.1-1.4,0.4c-0.4,0.2-0.6,0.7-0.6,1.4c0,0.5,0.1,0.8,0.3,1.1c0.2,0.3,0.5,0.4,0.9,0.4
		c0.4,0,0.7-0.1,1-0.4s0.3-0.7,0.3-1.2V12z"/>
	<path class="st0" d="M33.5,5.1V1.4H36v3.7h1.5V7H36v6.7c0,0.3,0,0.5,0.1,0.7c0.1,0.2,0.1,0.3,0.3,0.4c0.1,0.1,0.3,0.1,0.5,0.1
		c0.2,0,0.4,0,0.7,0v2.3h-1c-0.6,0-1-0.1-1.4-0.3c-0.4-0.2-0.7-0.4-0.9-0.7c-0.2-0.3-0.4-0.6-0.5-0.9c-0.1-0.3-0.2-0.7-0.2-1V7h-1.2
		V5.1H33.5z"/>
	<path class="st0" d="M38.4,4.4V0.1h2.4v2.4L38.4,4.4z"/>
	<path class="st0" d="M46,8.5c0-0.4-0.1-0.7-0.4-0.9s-0.5-0.3-0.9-0.3c-0.4,0-0.7,0.1-0.9,0.4c-0.2,0.2-0.3,0.5-0.3,0.9
		c0,0.2,0.1,0.4,0.2,0.7c0.1,0.2,0.4,0.4,0.9,0.6l1.4,0.6c0.9,0.4,1.5,0.8,1.9,1.4c0.3,0.6,0.5,1.3,0.5,2c0,0.5-0.1,1-0.3,1.4
		c-0.2,0.4-0.4,0.8-0.8,1.2c-0.3,0.3-0.7,0.6-1.2,0.8c-0.4,0.2-0.9,0.3-1.5,0.3c-1,0-1.8-0.3-2.5-0.9c-0.3-0.3-0.6-0.7-0.8-1.1
		c-0.2-0.5-0.3-1-0.3-1.6h2.3c0,0.3,0.2,0.6,0.3,0.9c0.2,0.3,0.5,0.4,1,0.4c0.4,0,0.7-0.1,0.9-0.3c0.3-0.2,0.4-0.6,0.4-1
		c0-0.3-0.1-0.6-0.3-0.9c-0.2-0.2-0.5-0.4-1-0.6l-1.2-0.4c-0.8-0.3-1.4-0.7-1.8-1.3c-0.4-0.6-0.7-1.3-0.7-2.1c0-0.5,0.1-1,0.3-1.4
		c0.2-0.4,0.5-0.8,0.8-1.1c0.3-0.3,0.7-0.6,1.1-0.7c0.4-0.2,0.9-0.3,1.4-0.3s1,0.1,1.4,0.3c0.4,0.2,0.8,0.4,1.1,0.7
		c0.3,0.3,0.5,0.7,0.7,1.1c0.2,0.4,0.3,0.9,0.3,1.4H46z"/>
	<path class="st0" d="M62.4,12.4v1.1c0,0.5-0.1,1-0.3,1.5c-0.2,0.5-0.5,0.9-0.8,1.3c-0.4,0.4-0.8,0.7-1.2,0.9
		c-0.5,0.2-1,0.3-1.5,0.3c-0.5,0-0.9-0.1-1.4-0.2s-0.9-0.4-1.3-0.7c-0.4-0.3-0.7-0.7-0.9-1.2s-0.4-1.1-0.4-1.9V3.9
		c0-0.6,0.1-1.1,0.3-1.6s0.5-0.9,0.8-1.2c0.4-0.4,0.8-0.6,1.3-0.8c0.5-0.2,1-0.3,1.6-0.3c1.2,0,2.1,0.4,2.8,1.1
		c0.4,0.4,0.6,0.8,0.8,1.3c0.2,0.5,0.3,1.1,0.3,1.6v1h-2.4V4.2c0-0.5-0.1-0.9-0.4-1.2s-0.6-0.5-1.1-0.5c-0.6,0-1,0.2-1.2,0.6
		c-0.2,0.4-0.3,0.9-0.3,1.4v8.7c0,0.5,0.1,0.9,0.3,1.2c0.2,0.3,0.6,0.5,1.2,0.5c0.2,0,0.3,0,0.5-0.1c0.2-0.1,0.4-0.1,0.5-0.3
		c0.1-0.1,0.3-0.3,0.4-0.5c0.1-0.2,0.1-0.5,0.1-0.8v-0.8H62.4z"/>
	<path class="st0" d="M63.3,17.2l3.8-17.1h2l3.8,17.1h-2.4l-0.7-3.7h-3.3l-0.7,3.7H63.3z M69.3,11.3l-1.2-6.2h0l-1.2,6.2H69.3z"/>
	<path class="st0" d="M74.1,17.2V0.1h2.4l3.7,10.3h0V0.1h2.4v17.1h-2.3L76.5,7h0v10.3H74.1z"/>
	<path class="st0" d="M84.8,17.2V0.1h3.6c1.4,0,2.5,0.4,3.2,1.2s1.1,1.9,1.1,3.3v8c0,1.6-0.4,2.8-1.2,3.5c-0.8,0.8-1.9,1.1-3.3,1.1
		H84.8z M87.3,2.4v12.5h1.1c0.7,0,1.2-0.2,1.5-0.5s0.4-0.9,0.4-1.6V4.6c0-0.7-0.1-1.2-0.4-1.6s-0.8-0.6-1.5-0.6H87.3z"/>
	<path class="st0" d="M96.9,17.2V10l-3.4-9.9h2.6l2,6.8h0l2-6.8h2.6L99.3,10v7.2H96.9z"/>
	<path class="st0" d="M108.2,4.2c0-0.7,0.1-1.3,0.4-1.8c0.2-0.5,0.6-1,1-1.3c0.4-0.3,0.8-0.6,1.3-0.8c0.5-0.2,1-0.3,1.5-0.3
		s1,0.1,1.5,0.3c0.5,0.2,0.9,0.4,1.3,0.8c0.4,0.4,0.7,0.8,0.9,1.3c0.2,0.5,0.4,1.1,0.4,1.8V5H114V4.2c0-0.6-0.2-1-0.5-1.3
		c-0.3-0.3-0.7-0.4-1.2-0.4s-0.8,0.1-1.2,0.4c-0.3,0.3-0.5,0.7-0.5,1.3v9c0,0.6,0.2,1,0.5,1.3c0.3,0.3,0.7,0.4,1.2,0.4
		s0.8-0.1,1.2-0.4c0.3-0.3,0.5-0.7,0.5-1.3V10H112V7.8h4.4v5.4c0,0.7-0.1,1.3-0.4,1.8c-0.2,0.5-0.6,0.9-0.9,1.3
		c-0.4,0.4-0.8,0.6-1.3,0.8c-0.5,0.2-1,0.3-1.5,0.3s-1-0.1-1.5-0.3c-0.5-0.2-0.9-0.4-1.3-0.8c-0.4-0.3-0.7-0.8-1-1.3
		c-0.2-0.5-0.4-1.1-0.4-1.8V4.2z"/>
	<path class="st0" d="M118.7,17.2V0.1h2.4v17.1H118.7z"/>
	<path class="st0" d="M123.5,17.2V0.1h3.9c2.9,0,4.3,1.7,4.3,5c0,1-0.2,1.9-0.5,2.6s-0.9,1.3-1.6,1.7l2.6,7.8h-2.6l-2.3-7.3h-1.5
		v7.3H123.5z M125.9,2.4v5.3h1.4c0.4,0,0.8-0.1,1-0.2c0.3-0.1,0.5-0.3,0.6-0.5c0.1-0.2,0.2-0.5,0.3-0.8c0-0.3,0.1-0.7,0.1-1.1
		c0-0.4,0-0.8-0.1-1.1c0-0.3-0.1-0.6-0.3-0.9c-0.3-0.4-0.9-0.7-1.7-0.7H125.9z"/>
	<path class="st0" d="M133.7,17.2V0.1h2.4v14.6h4.8v2.4H133.7z"/>
	<path class="st0" d="M142.2,5.1V3.6c0-0.5,0.1-1,0.3-1.4c0.2-0.4,0.5-0.8,0.8-1.2c0.3-0.3,0.7-0.6,1.2-0.8c0.4-0.2,0.9-0.3,1.4-0.3
		c0.6,0,1.1,0.1,1.6,0.4c0.5,0.2,0.9,0.6,1.2,1c0.2,0.2,0.3,0.4,0.4,0.6c0.1,0.2,0.2,0.4,0.3,0.6c0.1,0.4,0.2,1,0.2,1.7
		c0,0.4,0,0.8,0,1c0,0.3,0,0.5-0.1,0.7c0,0.2-0.1,0.4-0.1,0.5c0,0.2-0.1,0.3-0.2,0.4l-1.7,2.8c-0.1,0.2-0.2,0.4-0.3,0.6
		c-0.1,0.2-0.1,0.4-0.1,0.6V13h-2.4v-2.2c0-0.4,0.1-0.7,0.2-1c0.1-0.3,0.3-0.6,0.4-0.9l1.5-2.5c0.1-0.2,0.2-0.4,0.3-0.7
		c0-0.2,0.1-0.5,0.1-0.7V3.7c0-0.3-0.1-0.6-0.3-0.9c-0.2-0.2-0.5-0.4-0.9-0.4c-0.3,0-0.6,0.1-0.8,0.3c-0.3,0.2-0.4,0.5-0.4,0.9v1.4
		H142.2z M144.7,17.2v-2.4h2.4v2.4H144.7z"/>
</g>
</svg>
